<svg width="20" height="20" viewBox="0 0 20 20" fill="none" xmlns="http://www.w3.org/2000/svg">
<path d="M13.1496 8.18327L6.84375 4.54688" stroke="#1893FF" stroke-width="1.5" stroke-linecap="round" stroke-linejoin="round"/>
<path d="M16.3071 12.8077V7.20249C16.3068 6.95675 16.242 6.7154 16.119 6.50265C15.996 6.28989 15.8192 6.11322 15.6064 5.99035L10.7018 3.18774C10.4888 3.06475 10.2472 3 10.0012 3C9.75521 3 9.51357 3.06475 9.30054 3.18774L4.39597 5.99035C4.18315 6.11322 4.00639 6.28989 3.88341 6.50265C3.76043 6.7154 3.69556 6.95675 3.69531 7.20249V12.8077C3.69556 13.0535 3.76043 13.2948 3.88341 13.5076C4.00639 13.7203 4.18315 13.897 4.39597 14.0198L9.30054 16.8225C9.51357 16.9455 9.75521 17.0102 10.0012 17.0102C10.2472 17.0102 10.4888 16.9455 10.7018 16.8225L15.6064 14.0198C15.8192 13.897 15.996 13.7203 16.119 13.5076C16.242 13.2948 16.3068 13.0535 16.3071 12.8077Z" stroke="#1893FF" stroke-width="1.5" stroke-linecap="round" stroke-linejoin="round"/>
<path d="M3.88281 6.47656L9.99952 10.0149L16.1162 6.47656" stroke="#1893FF" stroke-width="1.5" stroke-linecap="round" stroke-linejoin="round"/>
<path d="M10 17.0665V10.0039" stroke="#1893FF" stroke-width="1.5" stroke-linecap="round" stroke-linejoin="round"/>
</svg>
