<svg width="18" height="16" viewBox="0 0 18 16" fill="none" xmlns="http://www.w3.org/2000/svg">
<path d="M1.5013 6.33334H0.667969V1.33583C0.667969 0.874168 1.04714 0.500002 1.49464 0.500002H16.508C16.6174 0.499771 16.7257 0.521301 16.8267 0.563338C16.9277 0.605375 17.0194 0.66708 17.0963 0.744862C17.1732 0.822644 17.2339 0.914949 17.2748 1.01641C17.3157 1.11786 17.3361 1.22645 17.3346 1.33583V6.33334H16.5013V14.6675C16.5016 14.7765 16.4805 14.8845 16.4391 14.9853C16.3977 15.0861 16.3368 15.1778 16.26 15.2551C16.1831 15.3324 16.0918 15.3939 15.9912 15.4359C15.8907 15.4779 15.7828 15.4997 15.6738 15.5H2.3288C2.2198 15.4997 2.11194 15.4779 2.01136 15.4359C1.91079 15.3939 1.81948 15.3324 1.74263 15.2551C1.66579 15.1778 1.60493 15.0861 1.56352 14.9853C1.52212 14.8845 1.50097 14.7765 1.5013 14.6675V6.33334ZM14.8346 6.33334H3.16797V13.8333H14.8346V6.33334ZM2.33464 2.16667V4.66667H15.668V2.16667H2.33464ZM6.5013 8H11.5013V9.66667H6.5013V8Z" fill="#1893FF"/>
</svg>
