<svg width="22" height="16" viewBox="0 0 22 16" fill="none" xmlns="http://www.w3.org/2000/svg">
<path d="M7.96509 12.0002C7.84621 12.8345 7.4303 13.5978 6.79377 14.1501C6.15723 14.7024 5.34281 15.0064 4.50009 15.0064C3.65737 15.0064 2.84295 14.7024 2.20641 14.1501C1.56987 13.5978 1.15397 12.8345 1.03509 12.0002H8.79765e-05L0 8.00018C0 7.73496 0.081543 7.50442 0.292893 7.29307C0.504243 7.08172 0.769784 7.00017 1.035 7.00017C1.14516 7.00017 3 7.00017 3 7.00017H6L9.00009 7.00018L14.0001 7.00017C14.0001 7.00017 14.0001 1.92153 14.0001 0.5C14.0001 0 14.5001 0 15.0001 1.54823e-05C15.5001 3.09646e-05 16.0001 0 16.0001 0H19.0001L22.0001 4.056V12.0002H19.9651C19.8462 12.8345 19.4303 13.5978 18.7938 14.1501C18.1572 14.7024 17.3428 15.0064 16.5001 15.0064C15.6574 15.0064 14.8429 14.7024 14.2064 14.1501C13.5699 13.5978 13.154 12.8345 13.0351 12.0002H7.96509ZM16.0001 7.00018H20.0001V4.715L17.9921 2H16.0001V7.00018ZM16.5001 13.0002C16.898 13.0002 17.2797 12.8421 17.5611 12.5607C17.8425 12.2793 18.0006 11.8976 18.0006 11.4997C18.0006 11.1017 17.8425 10.7201 17.5611 10.4387C17.2797 10.1573 16.898 9.99917 16.5001 9.99917C16.1021 9.99917 15.7205 10.1573 15.4391 10.4387C15.1577 10.7201 14.9996 11.1017 14.9996 11.4997C14.9996 11.8976 15.1577 12.2793 15.4391 12.5607C15.7205 12.8421 16.1021 13.0002 16.5001 13.0002ZM6.00009 11.5002C6.00009 11.3032 5.96129 11.1081 5.88591 10.9261C5.81052 10.7442 5.70004 10.5788 5.56075 10.4395C5.42146 10.3002 5.2561 10.1897 5.07411 10.1144C4.89212 10.039 4.69707 10.0002 4.50009 10.0002C4.3031 10.0002 4.10805 10.039 3.92606 10.1144C3.74407 10.1897 3.57872 10.3002 3.43943 10.4395C3.30014 10.5788 3.18965 10.7442 3.11427 10.9261C3.03889 11.1081 3.00009 11.3032 3.00009 11.5002C3.00009 11.898 3.15812 12.2795 3.43943 12.5608C3.72073 12.8421 4.10226 13.0002 4.50009 13.0002C4.89791 13.0002 5.27944 12.8421 5.56075 12.5608C5.84205 12.2795 6.00009 11.898 6.00009 11.5002Z" fill="#5C6470"/>
</svg>
