<svg width="18" height="18" viewBox="0 0 18 18" fill="none" xmlns="http://www.w3.org/2000/svg">
<path d="M13.1667 2.49992H16.5C16.721 2.49992 16.933 2.58772 17.0893 2.744C17.2456 2.90028 17.3334 3.11224 17.3334 3.33325V16.6666C17.3334 16.8876 17.2456 17.0996 17.0893 17.2558C16.933 17.4121 16.721 17.4999 16.5 17.4999H1.50002C1.27901 17.4999 1.06704 17.4121 0.910765 17.2558C0.754484 17.0996 0.666687 16.8876 0.666687 16.6666V3.33325C0.666687 3.11224 0.754484 2.90028 0.910765 2.744C1.06704 2.58772 1.27901 2.49992 1.50002 2.49992H4.83335V0.833252H6.50002V2.49992H11.5V0.833252H13.1667V2.49992ZM15.6667 9.16658H2.33335V15.8333H15.6667V9.16658ZM11.5 4.16659H6.50002V5.83325H4.83335V4.16659H2.33335V7.49992H15.6667V4.16659H13.1667V5.83325H11.5V4.16659ZM4.00002 10.8333H5.66669V12.4999H4.00002V10.8333ZM8.16669 10.8333H9.83335V12.4999H8.16669V10.8333ZM12.3334 10.8333H14V12.4999H12.3334V10.8333Z" fill="black"/>
</svg>
