<svg width="14" height="14" viewBox="0 0 14 14" fill="none" xmlns="http://www.w3.org/2000/svg">
<path d="M10.332 2.00033H12.9987C13.1755 2.00033 13.3451 2.07056 13.4701 2.19559C13.5951 2.32061 13.6654 2.49018 13.6654 2.66699V13.3337C13.6654 13.5105 13.5951 13.68 13.4701 13.8051C13.3451 13.9301 13.1755 14.0003 12.9987 14.0003H0.998698C0.821887 14.0003 0.652318 13.9301 0.527293 13.8051C0.402269 13.68 0.332031 13.5105 0.332031 13.3337V2.66699C0.332031 2.49018 0.402269 2.32061 0.527293 2.19559C0.652318 2.07056 0.821887 2.00033 0.998698 2.00033H3.66536V0.666992H4.9987V2.00033H8.9987V0.666992H10.332V2.00033ZM12.332 6.00033V3.33366H10.332V4.66699H8.9987V3.33366H4.9987V4.66699H3.66536V3.33366H1.66536V6.00033H12.332ZM12.332 7.33366H1.66536V12.667H12.332V7.33366ZM2.9987 8.66699H6.33203V11.3337H2.9987V8.66699Z" fill="#5C6470"/>
</svg>
