<svg width="24" height="24" viewBox="0 0 24 24" fill="none" xmlns="http://www.w3.org/2000/svg">
<path d="M21 20H23V22H1V20H3V3C3 2.73478 3.10536 2.48043 3.29289 2.29289C3.48043 2.10536 3.73478 2 4 2H20C20.2652 2 20.5196 2.10536 20.7071 2.29289C20.8946 2.48043 21 2.73478 21 3V20ZM19 20V4H5V20H19Z" fill="black"/>
<path d="M17.9994 15.0086C17.9994 15.3909 17.7564 16.1271 17.2109 16.5315C17.1017 16.6051 16.9919 16.5635 17.0399 16.4563C17.1989 16.1155 17.5631 15.3273 17.3921 15.1459C17.2721 15.0081 16.7741 15.0181 16.3492 15.0502C16.1548 15.0717 15.985 15.0817 15.8523 15.1054C15.7305 15.1143 15.7053 15.0197 15.8277 14.946C15.985 14.8488 16.1548 14.7751 16.3498 14.721C17.0399 14.5401 17.838 14.6489 17.952 14.7646C17.9736 14.7867 18 14.8488 18 15.0081L17.9994 15.0086ZM16.8467 15.6891C16.6882 15.7951 16.5218 15.8918 16.3486 15.9783C15.0753 16.6487 13.4263 17 11.9933 17C9.68723 17 7.62479 16.2549 6.05981 15.0081C5.92599 14.9124 6.037 14.7736 6.19362 14.8488C7.87982 15.7112 9.96686 16.2328 12.1277 16.2328C13.4869 16.2328 14.9528 16.0098 16.3492 15.5303C16.4464 15.4982 16.5556 15.4545 16.651 15.424C16.8713 15.3373 17.0651 15.5518 16.8467 15.6891V15.6891ZM13.1442 9.88899C13.1442 9.34159 13.1688 9.01925 12.9618 8.74265C12.7782 8.51496 12.462 8.37824 12.0209 8.3998C11.542 8.42294 11.0278 8.69795 10.8964 9.20224C10.8712 9.31793 10.7938 9.43151 10.6347 9.45622L9.17297 9.29321C9.06856 9.27218 8.91014 9.20224 8.96174 9.01925C9.27558 7.57212 10.6869 7.06783 12.0209 7H12.3347C13.0668 7 14.0071 7.18352 14.609 7.66467C15.3393 8.26203 15.2619 9.06447 15.2619 9.93632V12.0013C15.2619 12.6208 15.5481 12.8953 15.8367 13.2181C15.9148 13.3333 15.9412 13.4689 15.8097 13.5625C15.5217 13.7913 14.9732 14.2036 14.6594 14.4323C14.555 14.5022 14.3666 14.5096 14.2934 14.456C13.8313 14.1168 13.7185 13.9285 13.4323 13.5841C12.9342 14.0421 12.5166 14.2951 12.0191 14.4323C11.6693 14.5101 11.3095 14.5483 10.9486 14.5459C9.69443 14.5459 8.70071 13.8607 8.70071 12.5056C8.70071 11.4281 9.35479 10.6956 10.3209 10.3491C11.287 10.0021 12.6912 9.89162 13.1436 9.88952L13.1442 9.88899ZM12.8574 12.6192C13.1694 12.1606 13.1436 11.7852 13.1436 10.9444C12.753 10.9444 12.3599 10.968 12.0209 11.038C11.3938 11.1973 10.8964 11.5433 10.8964 12.2763C10.8964 12.8495 11.2366 13.2397 11.8115 13.2397C11.8907 13.2397 11.9603 13.2313 12.0209 13.216C12.4229 13.1182 12.6738 12.9415 12.8574 12.6192V12.6192Z" fill="black"/>
</svg>
