<svg width="24" height="24" viewBox="0 0 24 24" fill="none" xmlns="http://www.w3.org/2000/svg">
<path d="M21 8V20.993C21.0009 21.1243 20.976 21.2545 20.9266 21.3762C20.8772 21.4979 20.8043 21.6087 20.7121 21.7022C20.6199 21.7957 20.5101 21.8701 20.3892 21.9212C20.2682 21.9723 20.1383 21.9991 20.007 22H3.993C3.72981 22 3.47739 21.8955 3.2912 21.7095C3.105 21.5235 3.00027 21.2712 3 21.008V2.992C3 2.455 3.449 2 4.002 2H14.997L21 8ZM19 9H14V4H5V20H19V9Z" fill="#5C6470"/>
<path d="M8.37012 14.6045C8.2334 14.6045 8.11133 14.6338 8.00391 14.6924C7.89648 14.749 7.80469 14.832 7.72852 14.9414C7.65234 15.0508 7.59375 15.1846 7.55273 15.3428C7.51367 15.499 7.49414 15.6768 7.49414 15.876C7.49414 16.1455 7.52832 16.3721 7.59668 16.5557C7.66504 16.7393 7.76855 16.8779 7.90723 16.9717C8.04785 17.0654 8.22363 17.1123 8.43457 17.1123C8.62598 17.1123 8.80957 17.0859 8.98535 17.0332C9.16309 16.9805 9.3418 16.917 9.52148 16.8428V17.8213C9.33203 17.9053 9.1377 17.9658 8.93848 18.0029C8.74121 18.04 8.53125 18.0586 8.30859 18.0586C7.84375 18.0586 7.46289 17.9668 7.16602 17.7832C6.87109 17.5977 6.65332 17.3408 6.5127 17.0127C6.37402 16.6846 6.30469 16.3037 6.30469 15.8701C6.30469 15.5459 6.34961 15.249 6.43945 14.9795C6.53125 14.71 6.66504 14.4766 6.84082 14.2793C7.0166 14.0801 7.2334 13.9268 7.49121 13.8193C7.75098 13.71 8.04785 13.6553 8.38184 13.6553C8.58887 13.6553 8.80664 13.6797 9.03516 13.7285C9.26562 13.7754 9.49023 13.8516 9.70898 13.957L9.35449 14.8682C9.19824 14.7939 9.04004 14.7314 8.87988 14.6807C8.71973 14.6299 8.5498 14.6045 8.37012 14.6045ZM13.9951 15.7676C13.9951 16.2656 13.9023 16.6797 13.7168 17.0098C13.5312 17.3398 13.2695 17.5879 12.9316 17.7539C12.5957 17.918 12.2002 18 11.7451 18H10.3594V13.7168H11.8418C12.3027 13.7168 12.6934 13.7959 13.0137 13.9541C13.334 14.1123 13.5771 14.3438 13.7432 14.6484C13.9111 14.9531 13.9951 15.3262 13.9951 15.7676ZM12.7939 15.8086C12.7939 15.5488 12.7588 15.334 12.6885 15.1641C12.6201 14.9922 12.5166 14.8643 12.3779 14.7803C12.2393 14.6943 12.0645 14.6514 11.8535 14.6514H11.5166V17.0508H11.7744C12.126 17.0508 12.3838 16.9492 12.5479 16.7461C12.7119 16.541 12.7939 16.2285 12.7939 15.8086ZM14.7656 18V13.7168H15.9229V17.0654H17.5723V18H14.7656Z" fill="#5C6470"/>
</svg>
