<svg width="16" height="20" viewBox="0 0 16 20" fill="none" xmlns="http://www.w3.org/2000/svg">
<path d="M2.16667 3.83732V11.4915C2.16668 12.0402 2.30215 12.5804 2.56105 13.0642C2.81996 13.548 3.19429 13.9604 3.65083 14.2648L8 17.1648L12.3492 14.2648C12.8056 13.9605 13.1799 13.5482 13.4388 13.0646C13.6977 12.581 13.8332 12.0409 13.8333 11.4923V3.83732L8 2.54232L2.16667 3.83732ZM1.1525 2.35565L8 0.833984L14.8475 2.35565C15.0326 2.39679 15.198 2.49979 15.3167 2.64766C15.4353 2.79552 15.5 2.97941 15.5 3.16898V11.4915C15.4999 12.3146 15.2967 13.125 14.9082 13.8507C14.5198 14.5764 13.9582 15.1949 13.2733 15.6515L8 19.1673L2.72667 15.6515C2.04189 15.195 1.48038 14.5766 1.09196 13.851C0.70353 13.1255 0.500197 12.3153 0.5 11.4923V3.16898C0.500033 2.97941 0.564698 2.79552 0.683325 2.64766C0.801951 2.49979 0.967447 2.39679 1.1525 2.35565ZM8 11.2507L5.55083 12.5382L6.01833 9.81149L4.0375 7.87982L6.77583 7.48149L8 5.00065L9.225 7.48149L11.9625 7.87982L9.98167 9.81149L10.4483 12.5382L8 11.2507Z" fill="#1893FF"/>
</svg>
