<svg width="20" height="20" viewBox="0 0 20 20" fill="none" xmlns="http://www.w3.org/2000/svg">
<path d="M11.0598 6.11023L12.4748 7.52523C13.1249 8.17525 13.6405 8.94696 13.9924 9.79628C14.3442 10.6456 14.5253 11.5559 14.5253 12.4752C14.5253 13.3945 14.3442 14.3049 13.9924 15.1542C13.6405 16.0035 13.1249 16.7752 12.4748 17.4252L12.1208 17.7782C10.8079 19.0911 9.02738 19.8286 7.17077 19.8286C5.31416 19.8286 3.53359 19.0911 2.22077 17.7782C0.907946 16.4654 0.17041 14.6848 0.17041 12.8282C0.17041 10.9716 0.907946 9.19105 2.22077 7.87823L3.63577 9.29323C3.16814 9.75678 2.79667 10.3081 2.5427 10.9156C2.28872 11.5231 2.15724 12.1748 2.1558 12.8333C2.15435 13.4917 2.28298 14.144 2.53429 14.7526C2.78561 15.3612 3.15465 15.9142 3.62025 16.3798C4.08585 16.8453 4.63882 17.2144 5.24743 17.4657C5.85603 17.717 6.50828 17.8456 7.16673 17.8442C7.82518 17.8428 8.47686 17.7113 9.08436 17.4573C9.69186 17.2033 10.2432 16.8319 10.7068 16.3642L11.0608 16.0102C11.9981 15.0726 12.5247 13.8011 12.5247 12.4752C12.5247 11.1494 11.9981 9.87787 11.0608 8.94023L9.64577 7.52523L11.0608 6.11123L11.0598 6.11023ZM17.7778 12.1212L16.3638 10.7072C16.8314 10.2437 17.2029 9.69233 17.4568 9.08483C17.7108 8.47733 17.8423 7.82565 17.8437 7.1672C17.8452 6.50875 17.7166 5.8565 17.4652 5.24789C17.2139 4.63928 16.8449 4.08631 16.3793 3.62071C15.9137 3.15512 15.3607 2.78607 14.7521 2.53476C14.1435 2.28345 13.4913 2.15482 12.8328 2.15626C12.1744 2.1577 11.5227 2.28919 10.9152 2.54316C10.3077 2.79714 9.75632 3.1686 9.29277 3.63623L8.93877 3.99023C8.00141 4.92787 7.47484 6.19941 7.47484 7.52523C7.47484 8.85105 8.00141 10.1226 8.93877 11.0602L10.3538 12.4752L8.93877 13.8892L7.52477 12.4752C6.87468 11.8252 6.359 11.0535 6.00717 10.2042C5.65535 9.35486 5.47426 8.44454 5.47426 7.52523C5.47426 6.60592 5.65535 5.69561 6.00717 4.84628C6.359 3.99696 6.87468 3.22525 7.52477 2.57523L7.87877 2.22223C9.19159 0.909411 10.9722 0.171875 12.8288 0.171875C14.6854 0.171875 16.4659 0.909411 17.7788 2.22223C19.0916 3.53505 19.8291 5.31562 19.8291 7.17223C19.8291 9.02884 19.0916 10.8094 17.7788 12.1222L17.7778 12.1212Z" fill="#313E47"/>
</svg>
