<svg width="20" height="20" viewBox="0 0 20 20" fill="none" xmlns="http://www.w3.org/2000/svg">
<g clip-path="url(#clip0_9687_1549)">
<path d="M3.33076 13.3333H16.6641V4.16667H3.33076V13.3333ZM10.8308 15V16.6667H14.1641V18.3333H5.83076V16.6667H9.1641V15H2.49076C2.38133 14.9993 2.27311 14.9771 2.17229 14.9345C2.07148 14.892 1.98005 14.83 1.90326 14.752C1.82646 14.674 1.7658 14.5817 1.72476 14.4802C1.68372 14.3788 1.66311 14.2703 1.6641 14.1608V3.33917C1.6641 2.87583 2.04326 2.5 2.49076 2.5H17.5041C17.9608 2.5 18.3308 2.87417 18.3308 3.33917V14.1608C18.3308 14.6242 17.9516 15 17.5041 15H10.8308Z" fill="#989EA3"/>
</g>
<defs>
<clipPath id="clip0_9687_1549">
<rect width="20" height="20" fill="white"/>
</clipPath>
</defs>
</svg>
