<svg width="21" height="21" viewBox="0 0 21 21" fill="none" xmlns="http://www.w3.org/2000/svg">
<path d="M0.901323 0.300414L19.7063 6.56841C19.8037 6.60068 19.8887 6.66208 19.95 6.74432C20.0112 6.82655 20.0457 6.92562 20.0488 7.02812C20.0518 7.13061 20.0233 7.23157 19.9671 7.31731C19.9108 7.40304 19.8296 7.46941 19.7343 7.50741L11.0013 11.0004L6.57632 19.8504C6.53129 19.9405 6.46009 20.0149 6.37205 20.0639C6.284 20.1129 6.18322 20.1341 6.08291 20.1248C5.9826 20.1155 5.88743 20.0761 5.80989 20.0118C5.73234 19.9475 5.67602 19.8613 5.64832 19.7644L0.261323 0.911414C0.236369 0.823829 0.235811 0.731091 0.259709 0.643212C0.283606 0.555333 0.331051 0.475649 0.396923 0.412762C0.462794 0.349875 0.544591 0.306173 0.633484 0.286374C0.722376 0.266574 0.814988 0.271429 0.901323 0.300414Z" fill="#313E47"/>
</svg>
