<svg width="10" height="11" viewBox="0 0 10 11" fill="none" xmlns="http://www.w3.org/2000/svg">
<path d="M8.182 7.68196L5 10.864L1.818 7.68196C1.18867 7.05262 0.760093 6.2508 0.586464 5.37789C0.412835 4.50497 0.501953 3.60018 0.842549 2.77791C1.18315 1.95565 1.75992 1.25285 2.49994 0.758383C3.23996 0.263919 4.10999 0 5 0C5.89002 0 6.76004 0.263919 7.50006 0.758383C8.24008 1.25285 8.81686 1.95565 9.15745 2.77791C9.49805 3.60018 9.58717 4.50497 9.41354 5.37789C9.23991 6.2508 8.81133 7.05262 8.182 7.68196ZM4.5 3.99996H3V4.99996H4.5V6.49996H5.5V4.99996H7V3.99996H5.5V2.49996H4.5V3.99996Z" fill="#B15EE4"/>
</svg>
