<svg width="18" height="18" viewBox="0 0 18 18" fill="none" xmlns="http://www.w3.org/2000/svg">
<path d="M4.86954 5.98535L8.92309 4.63623C8.97143 4.62012 9.02271 4.62158 9.06666 4.63623L13.1729 6.04248C13.274 6.07617 13.3356 6.17432 13.3253 6.27686C13.3268 6.28125 13.3268 6.28711 13.3268 6.29297V11.0684H13.3253C13.3253 11.1504 13.2799 11.231 13.2008 11.2705L9.12379 13.3418C9.09009 13.3623 9.04908 13.374 9.00659 13.374C8.96118 13.374 8.91869 13.3608 8.88354 13.3374L4.79629 11.2061C4.71865 11.165 4.6747 11.0874 4.6747 11.0054V6.21094C4.67323 6.09521 4.7582 6.00146 4.86954 5.98535ZM3.55693 3.17285L4.79629 4.41211C4.9047 4.52051 4.9047 4.69482 4.79629 4.80322C4.68935 4.91016 4.51355 4.91016 4.40661 4.80322L3.17604 3.57275L3.20973 4.38721C3.20973 4.39453 3.20973 4.40332 3.2068 4.41064C3.18776 4.47217 3.14821 4.5249 3.0984 4.56152C3.04859 4.59814 2.98852 4.62012 2.9226 4.62012C2.84056 4.62158 2.76439 4.58789 2.71018 4.53369C2.65451 4.47949 2.62082 4.40479 2.61935 4.32129C2.59591 3.85254 2.54757 3.32812 2.54757 2.8667C2.54757 2.77295 2.5798 2.69385 2.63693 2.63818C2.6926 2.58398 2.76878 2.55176 2.85961 2.55029C3.25222 2.53564 3.91585 2.58838 4.32457 2.61768C4.40661 2.61914 4.48132 2.65137 4.53406 2.70557C4.5868 2.7583 4.62049 2.83154 4.62342 2.91211V2.91943C4.62342 3.00146 4.58973 3.07764 4.53553 3.13184C4.48279 3.18457 4.40954 3.21826 4.32897 3.21973H4.32311C4.07406 3.21973 3.88215 3.20215 3.69171 3.18457L3.55693 3.17285ZM1.03133 8.72754H2.78343C2.93579 8.72754 3.05884 8.85059 3.05884 9.00293C3.05884 9.15527 2.93579 9.27832 2.78343 9.27832H1.04305L1.64369 9.83057C1.64955 9.83643 1.65394 9.84229 1.65834 9.84961C1.68764 9.90674 1.69789 9.97119 1.68764 10.0327C1.67885 10.0928 1.65101 10.1514 1.60413 10.1982C1.547 10.2568 1.46936 10.2876 1.39318 10.2876C1.31554 10.2876 1.23789 10.2598 1.1793 10.2012C0.832099 9.88623 0.426304 9.54932 0.0996175 9.22266C0.0322292 9.1582 0 9.08057 0 9.00146C0 8.92383 0.0322292 8.84766 0.0952226 8.7832C0.361846 8.49463 0.870188 8.06396 1.1793 7.7959C1.23789 7.73877 1.31407 7.70947 1.39025 7.70947C1.46496 7.70947 1.53968 7.7373 1.59827 7.7915L1.60413 7.79736C1.66273 7.85596 1.69203 7.93359 1.69203 8.00977C1.69203 8.08447 1.6642 8.15918 1.60853 8.21777L1.6056 8.22217C1.4298 8.39941 1.28184 8.521 1.13388 8.64258L1.03133 8.72754ZM3.17311 14.4434L4.41247 13.2041C4.51941 13.0972 4.69521 13.0972 4.80215 13.2041C4.91056 13.3125 4.91056 13.4868 4.80215 13.5952L3.57158 14.8257L4.3861 14.792C4.39342 14.792 4.40221 14.7935 4.40954 14.7949C4.47107 14.8154 4.52381 14.8535 4.56043 14.9033C4.59705 14.9531 4.61903 15.0132 4.61903 15.0791C4.61903 15.1611 4.5868 15.2373 4.5326 15.2915C4.47839 15.3472 4.40368 15.3809 4.32018 15.3823C3.85139 15.4058 3.32693 15.4541 2.864 15.4541C2.77024 15.4541 2.69114 15.4219 2.63547 15.3662C2.58126 15.3105 2.54904 15.2344 2.54757 15.1436C2.53146 14.751 2.58566 14.0874 2.61496 13.6787C2.61642 13.5967 2.64865 13.522 2.70286 13.4692C2.7556 13.4165 2.82884 13.3828 2.90795 13.3799H2.91528C2.99731 13.3799 3.07349 13.4136 3.1277 13.4678C3.18043 13.5205 3.21413 13.5938 3.21706 13.6743V13.6787C3.21852 13.9292 3.19948 14.1196 3.1819 14.3101L3.17311 14.4434ZM8.72825 16.9673V15.2153C8.72825 15.063 8.85131 14.9399 9.00366 14.9399C9.15602 14.9399 9.27908 15.063 9.27908 15.2153V16.9556L9.83137 16.355C9.83723 16.3491 9.84309 16.3447 9.85041 16.3403C9.90754 16.311 9.972 16.3008 10.0335 16.311C10.0936 16.3198 10.1522 16.3477 10.1991 16.3945C10.2577 16.4517 10.2884 16.5293 10.2884 16.6069C10.2884 16.6846 10.2606 16.7622 10.202 16.8208C9.88704 17.168 9.55009 17.5737 9.22341 17.9004C9.15602 17.9663 9.07838 18 8.99927 18C8.92162 18 8.84545 17.9678 8.78099 17.9048C8.49239 17.6382 8.06169 17.1313 7.7936 16.8208C7.73647 16.7622 7.70717 16.686 7.70717 16.6099C7.70717 16.5352 7.735 16.459 7.78921 16.4019L7.79507 16.396C7.85367 16.3374 7.93131 16.3081 8.00749 16.3081C8.0822 16.3081 8.15691 16.3359 8.21551 16.3916L8.21844 16.3945C8.3957 16.5703 8.51729 16.7183 8.63889 16.8662L8.72825 16.9673ZM14.4445 14.8271L13.2052 13.5879C13.0968 13.4795 13.0968 13.3052 13.2052 13.1968C13.3121 13.0898 13.4879 13.0898 13.5949 13.1968L14.8254 14.4272L14.7917 13.6128C14.7917 13.6055 14.7917 13.5967 14.7947 13.5894C14.8137 13.5278 14.8533 13.4751 14.9031 13.4385C14.9529 13.4019 15.0129 13.3799 15.0789 13.3799C15.1609 13.3784 15.2371 13.4121 15.2913 13.4663C15.347 13.5205 15.3806 13.5952 15.3821 13.6787C15.4056 14.1475 15.4539 14.6719 15.4539 15.1348C15.4539 15.2285 15.4217 15.3076 15.3645 15.3633C15.3089 15.4175 15.2327 15.4497 15.1419 15.4512C14.7492 15.4658 14.0856 15.4131 13.6769 15.3838C13.5949 15.3823 13.5201 15.3501 13.4674 15.2959C13.4147 15.2432 13.381 15.1699 13.378 15.0894V15.082C13.378 15 13.4117 14.9238 13.4659 14.8696C13.5187 14.8169 13.5919 14.7832 13.6725 14.7803H13.6784C13.9289 14.7788 14.1193 14.7979 14.3083 14.8154L14.4445 14.8271ZM16.9701 9.271H15.218C15.0657 9.271 14.9412 9.14795 14.9412 8.99561C14.9412 8.84326 15.0657 8.72021 15.218 8.72021H16.9584L16.3578 8.16797C16.3519 8.16211 16.3475 8.15625 16.3431 8.14893C16.3138 8.0918 16.3036 8.02734 16.3138 7.96582C16.3226 7.90576 16.3505 7.84717 16.3973 7.80029C16.4559 7.7417 16.5321 7.71094 16.6097 7.71094C16.6874 7.71094 16.765 7.73877 16.8236 7.79736C17.1708 8.1123 17.5766 8.44922 17.9033 8.77588C17.9692 8.84326 18.0029 8.9209 18.0015 9C18.0015 9.07764 17.9692 9.15381 17.9062 9.21826C17.6396 9.50684 17.1313 9.9375 16.8222 10.2056C16.7636 10.2627 16.6874 10.292 16.6112 10.292C16.5365 10.292 16.4603 10.2642 16.4032 10.21L16.3973 10.2041C16.3387 10.1455 16.3094 10.0679 16.3094 9.9917C16.3094 9.91699 16.3373 9.84082 16.3929 9.78369L16.3959 9.7793C16.5717 9.60205 16.7196 9.48047 16.8676 9.35889L16.9701 9.271ZM14.8269 3.55664L13.5875 4.7959C13.4806 4.90283 13.3048 4.90283 13.1979 4.7959C13.0894 4.6875 13.0894 4.51318 13.1979 4.40625L14.4284 3.17578L13.6139 3.20947C13.6066 3.20947 13.5978 3.20801 13.5905 3.20654C13.5289 3.18604 13.4762 3.14795 13.4396 3.09814C13.4029 3.04834 13.381 2.98828 13.381 2.92236C13.381 2.84033 13.4132 2.76416 13.4674 2.70996C13.5216 2.6543 13.5963 2.62061 13.6798 2.61914C14.1486 2.5957 14.6731 2.54736 15.136 2.54736C15.2298 2.54736 15.3089 2.57959 15.3645 2.63525C15.4187 2.69092 15.451 2.76709 15.4524 2.85791C15.4685 3.25049 15.4143 3.91406 15.385 4.32275C15.3836 4.40479 15.3513 4.47949 15.2971 4.53369C15.2444 4.58643 15.1712 4.62012 15.0906 4.62305H15.0833C15.0012 4.62305 14.925 4.58936 14.8708 4.53516C14.8181 4.48242 14.7844 4.40918 14.7815 4.32861V4.32422C14.7815 4.07373 14.7991 3.8833 14.8166 3.69287L14.8269 3.55664ZM9.27175 1.03125V2.7832C9.27175 2.93555 9.14869 3.05859 8.99634 3.05859C8.84398 3.05859 8.71946 2.93555 8.71946 2.7832V1.04443L8.16863 1.64355C8.16277 1.64941 8.15691 1.65381 8.14959 1.6582C8.09246 1.6875 8.028 1.69775 7.96647 1.6875C7.90641 1.67871 7.84781 1.65088 7.80093 1.604C7.74233 1.54688 7.71157 1.46924 7.71157 1.39307C7.71157 1.31543 7.7394 1.23779 7.798 1.1792C8.11296 0.832031 8.44991 0.42627 8.77659 0.0996094C8.84105 0.0322266 8.92016 0 8.99927 0C9.07691 0 9.15309 0.0322266 9.21755 0.0952148C9.50614 0.361816 9.93684 0.868652 10.2049 1.1792C10.2621 1.23779 10.2914 1.31396 10.2914 1.39014C10.2914 1.46484 10.2635 1.53955 10.2093 1.59814L10.2035 1.604C10.1449 1.6626 10.0672 1.69189 9.99105 1.69189C9.91633 1.69189 9.84162 1.66406 9.78302 1.6084L9.77863 1.60547C9.60137 1.42969 9.47978 1.28174 9.35818 1.13379L9.27175 1.03125ZM5.76609 9.48486C5.76609 9.39844 5.83641 9.32666 5.92431 9.32666C6.01074 9.32666 6.08253 9.39697 6.08253 9.48486V10.1279C6.08253 10.1323 6.08253 10.1382 6.08106 10.144C6.08106 10.166 6.08399 10.1836 6.08839 10.1982C6.09132 10.2026 6.09278 10.207 6.09718 10.21L6.49125 10.3931C6.57036 10.4297 6.60405 10.5234 6.56889 10.6025C6.53227 10.6816 6.43998 10.7153 6.36087 10.6802L5.958 10.4927C5.95068 10.4897 5.94335 10.4868 5.93749 10.481C5.87304 10.4399 5.82762 10.3857 5.79979 10.3184C5.77781 10.2642 5.76756 10.2041 5.76902 10.1396V10.1294L5.76609 9.48486ZM8.77952 12.7749V8.20605L5.12737 6.55078V10.8691L8.77952 12.7749ZM12.8712 6.60498L9.23366 8.20898V12.7793L12.8712 10.9307V6.60498ZM8.99194 5.08887L5.53903 6.23877L9.00806 7.81201L12.4771 6.28418L8.99194 5.08887Z" fill="#409FCB"/>
</svg>
