<svg width="200" height="200" viewBox="0 0 200 200" fill="none" xmlns="http://www.w3.org/2000/svg">
<path d="M100 133.334H66.6667V66.667H100C108.841 66.667 117.319 70.1789 123.57 76.4301C129.821 82.6813 133.333 91.1598 133.333 100C133.333 108.841 129.821 117.319 123.57 123.571C117.319 129.822 108.841 133.334 100 133.334ZM83.3333 83.3337V116.667H100C104.42 116.667 108.66 114.911 111.785 111.785C114.911 108.66 116.667 104.421 116.667 100C116.667 95.5801 114.911 91.3408 111.785 88.2152C108.66 85.0896 104.42 83.3337 100 83.3337H83.3333ZM125 33.3337H41.6667V166.667H158.333V66.667H125V33.3337ZM25 24.9337C25 20.367 28.725 16.667 33.325 16.667H133.333L175 58.3337V174.942C175.008 176.036 174.8 177.122 174.388 178.136C173.976 179.15 173.369 180.072 172.601 180.852C171.832 181.631 170.918 182.251 169.91 182.677C168.901 183.103 167.819 183.326 166.725 183.334H33.275C31.0865 183.318 28.9918 182.443 27.4435 180.896C25.8951 179.349 25.0175 177.255 25 175.067V24.9337Z" fill="#5C6470"/>
</svg>
