<svg xmlns="http://www.w3.org/2000/svg" id="sv" width="50" height="50" viewBox="0 0 50 50">
<path id="0" fill="#EC7F31" d="M25.436310160932088, 0.0038076210902175944 A25,25 0 0 1 41.79262684501209,6.479533384815074 L35.07557610700725,13.887720030889046 A15,15 0 0 0 25.261786096559252,10.002284572654132 Z"></path>
<path id="1" fill="#000000" d="M42.42875219402512, 7.076869777874613 A25,25 0 0 1 47.80357522927165,35.24680227012059 L38.68214513756299,31.148081362072354 A15,15 0 0 0 35.457251316415075,14.246121866724769 Z"></path>
<path id="2" fill="#969696" d="M47.43207566533671, 36.036393493556155 A25,25 0 0 1 1.3630301777688487,33.14209172282736 L10.817818106661308,29.885255033696417 A15,15 0 0 0 38.459245399202025,31.621836096133695 Z"></path>
<path id="3" fill="#06B638" d="M1.0932742779027222, 32.312213430173685 A25,25 0 0 1 24.559327187160704,0.0038841522922936633 L24.735596312296423,10.002330491375377 A15,15 0 0 0 10.655964566741634,29.387328058104213 Z"></path>
</svg>