<svg width="20" height="18" viewBox="0 0 20 18" fill="none" xmlns="http://www.w3.org/2000/svg">
<path d="M10.8332 9.83335V14.4875L12.3566 12.9642L13.5357 14.1434L9.99991 17.6784L6.46408 14.1434L7.64324 12.9642L9.16658 14.4875V9.83335H10.8332ZM9.99991 0.666687C11.4307 0.666755 12.8116 1.19262 13.8801 2.14429C14.9485 3.09596 15.63 4.40707 15.7949 5.82835C16.8318 6.11112 17.7363 6.74927 18.3505 7.63129C18.9646 8.51331 19.2492 9.5831 19.1546 10.6537C19.06 11.7243 18.5922 12.7275 17.8329 13.4882C17.0736 14.2489 16.0712 14.7185 15.0007 14.815V13.1367C15.3842 13.0819 15.7529 12.9513 16.0854 12.7525C16.4178 12.5537 16.7074 12.2906 16.937 11.9787C17.1667 11.6668 17.332 11.3122 17.4231 10.9357C17.5143 10.5592 17.5296 10.1684 17.468 9.78591C17.4065 9.40346 17.2694 9.03711 17.0647 8.70823C16.86 8.37935 16.5919 8.09454 16.2759 7.87041C15.96 7.64629 15.6025 7.48735 15.2245 7.40286C14.8465 7.31838 14.4554 7.31005 14.0741 7.37835C14.2046 6.77076 14.1975 6.14166 14.0534 5.53715C13.9093 4.93263 13.6318 4.36801 13.2412 3.88463C12.8507 3.40125 12.3569 3.01136 11.7961 2.74352C11.2354 2.47567 10.6218 2.33666 10.0003 2.33666C9.37887 2.33666 8.76529 2.47567 8.20452 2.74352C7.64375 3.01136 7.14999 3.40125 6.75941 3.88463C6.36884 4.36801 6.09133 4.93263 5.94723 5.53715C5.80313 6.14166 5.79607 6.77076 5.92658 7.37835C5.16629 7.23558 4.38043 7.40068 3.74186 7.83732C3.1033 8.27397 2.66435 8.9464 2.52158 9.70669C2.3788 10.467 2.5439 11.2528 2.98055 11.8914C3.41719 12.53 4.08962 12.9689 4.84991 13.1117L4.99991 13.1367V14.815C3.92945 14.7186 2.92692 14.2491 2.16752 13.4885C1.40813 12.7279 0.940184 11.7247 0.845474 10.654C0.750763 9.58343 1.03531 8.51359 1.64939 7.6315C2.26346 6.74941 3.168 6.11118 4.20491 5.82835C4.36967 4.407 5.05108 3.09578 6.11956 2.14407C7.18804 1.19237 8.56904 0.666573 9.99991 0.666687Z" fill="white"/>
</svg>
