<svg width="8" height="5" viewBox="0 0 8 5" fill="none" xmlns="http://www.w3.org/2000/svg">
<path d="M4.20791 0.541251L7.74091 4.07425C7.76597 4.09935 7.78034 4.12851 7.7825 4.15862C7.78466 4.18873 7.77453 4.21867 7.75318 4.24525C7.73184 4.27183 7.70008 4.29405 7.66129 4.30955C7.6225 4.32504 7.57813 4.33324 7.53291 4.33325L0.466912 4.33325C0.421691 4.33324 0.377323 4.32504 0.338534 4.30955C0.299744 4.29405 0.267986 4.27183 0.246642 4.24525C0.225297 4.21867 0.215166 4.18873 0.217327 4.15862C0.219487 4.12851 0.23386 4.09935 0.258912 4.07425L3.79191 0.541252C3.81474 0.518425 3.84567 0.499709 3.88196 0.486765C3.91824 0.47382 3.95876 0.467047 3.99991 0.467047C4.04107 0.467047 4.08158 0.47382 4.11787 0.486765C4.15415 0.499709 4.18508 0.518425 4.20791 0.541251Z" fill="#313E47"/>
</svg>
