<svg width="46" height="55" viewBox="0 0 46 55" fill="none" xmlns="http://www.w3.org/2000/svg">
<g filter="url(#filter0_d)">
<path d="M43 21C43 32.0457 33 43 23 49.5C13 43 3 32.0457 3 21C3 9.9543 11.9543 1 23 1C34.0457 1 43 9.9543 43 21Z" fill="white"/>
</g>
<path d="M19.9649 27C19.8461 27.8343 19.4302 28.5977 18.7936 29.1499C18.1571 29.7022 17.3427 30.0063 16.4999 30.0063C15.6572 30.0063 14.8428 29.7022 14.2063 29.1499C13.5697 28.5977 13.1538 27.8343 13.0349 27H11.9999V15C11.9999 14.7348 12.1053 14.4804 12.2928 14.2929C12.4804 14.1054 12.7347 14 12.9999 14H26.9999C27.2652 14 27.5195 14.1054 27.707 14.2929C27.8946 14.4804 27.9999 14.7348 27.9999 15V17H30.9999L33.9999 21.056V27H31.9649C31.8461 27.8343 31.4302 28.5977 30.7936 29.1499C30.1571 29.7022 29.3427 30.0063 28.4999 30.0063C27.6572 30.0063 26.8428 29.7022 26.2063 29.1499C25.5697 28.5977 25.1538 27.8343 25.0349 27H19.9649ZM25.9999 16H13.9999V24.05C14.3945 23.6472 14.8805 23.3457 15.4167 23.1711C15.9528 22.9966 16.5232 22.9541 17.0793 23.0474C17.6354 23.1407 18.1607 23.3669 18.6105 23.7069C19.0604 24.0469 19.4214 24.4905 19.6629 25H25.3369C25.5049 24.647 25.7299 24.326 25.9999 24.05V16ZM27.9999 22H31.9999V21.715L29.9919 19H27.9999V22ZM28.4999 28C28.8979 28 29.2796 27.8419 29.561 27.5605C29.8424 27.2791 30.0004 26.8975 30.0004 26.4995C30.0004 26.1015 29.8424 25.7199 29.561 25.4385C29.2796 25.1571 28.8979 24.999 28.4999 24.999C28.102 24.999 27.7203 25.1571 27.4389 25.4385C27.1575 25.7199 26.9994 26.1015 26.9994 26.4995C26.9994 26.8975 27.1575 27.2791 27.4389 27.5605C27.7203 27.8419 28.102 28 28.4999 28ZM17.9999 26.5C17.9999 26.303 17.9611 26.108 17.8858 25.926C17.8104 25.744 17.6999 25.5786 17.5606 25.4393C17.4213 25.3001 17.256 25.1896 17.074 25.1142C16.892 25.0388 16.6969 25 16.4999 25C16.303 25 16.1079 25.0388 15.9259 25.1142C15.7439 25.1896 15.5786 25.3001 15.4393 25.4393C15.3 25.5786 15.1895 25.744 15.1141 25.926C15.0387 26.108 14.9999 26.303 14.9999 26.5C14.9999 26.8978 15.158 27.2794 15.4393 27.5607C15.7206 27.842 16.1021 28 16.4999 28C16.8978 28 17.2793 27.842 17.5606 27.5607C17.8419 27.2794 17.9999 26.8978 17.9999 26.5Z" fill="#00B533"/>
<defs>
<filter id="filter0_d" x="0" y="0" width="46" height="54.5" filterUnits="userSpaceOnUse" color-interpolation-filters="color">
<feFlood flood-opacity="0" result="BackgroundImageFix"/>
<feColorMatrix in="SourceAlpha" type="matrix" values="0 0 0 0 0 0 0 0 0 0 0 0 0 0 0 0 0 0 127 0" result="hardAlpha"/>
<feOffset dy="2"/>
<feGaussianBlur stdDeviation="1.5"/>
<feColorMatrix type="matrix" values="0"/>
<feBlend mode="normal" in2="BackgroundImageFix" result="effect1_dropShadow"/>
<feBlend mode="normal" in="SourceGraphic" in2="effect1_dropShadow" result="shape"/>
</filter>
</defs>
</svg>
