<svg width="9" height="16" viewBox="0 0 9 16" fill="none" xmlns="http://www.w3.org/2000/svg">
<path d="M2.75391 10.6445V10.0293C2.75391 9.54753 2.80924 9.1276 2.91992 8.76953C3.0306 8.41146 3.21615 8.07617 3.47656 7.76367C3.73698 7.44466 4.08854 7.11263 4.53125 6.76758C4.98698 6.40951 5.34831 6.10026 5.61523 5.83984C5.88867 5.57943 6.08398 5.31901 6.20117 5.05859C6.32487 4.79167 6.38672 4.48242 6.38672 4.13086C6.38672 3.57747 6.19792 3.15755 5.82031 2.87109C5.44922 2.57812 4.92513 2.43164 4.24805 2.43164C3.64909 2.43164 3.08594 2.51628 2.55859 2.68555C2.03125 2.85482 1.51042 3.06641 0.996094 3.32031L0.185547 1.60156C0.777995 1.27604 1.41927 1.01562 2.10938 0.820312C2.80599 0.61849 3.57096 0.517578 4.4043 0.517578C5.73242 0.517578 6.75781 0.839844 7.48047 1.48438C8.20964 2.12891 8.57422 2.97852 8.57422 4.0332C8.57422 4.61263 8.48307 5.11068 8.30078 5.52734C8.11849 5.9375 7.84831 6.31836 7.49023 6.66992C7.13867 7.01497 6.71224 7.37956 6.21094 7.76367C5.80078 8.08919 5.48503 8.3724 5.26367 8.61328C5.04883 8.84766 4.89909 9.08529 4.81445 9.32617C4.73633 9.56706 4.69727 9.85677 4.69727 10.1953V10.6445H2.75391ZM2.38281 13.7891C2.38281 13.2552 2.51953 12.8809 2.79297 12.666C3.07292 12.4447 3.41471 12.334 3.81836 12.334C4.20898 12.334 4.54427 12.4447 4.82422 12.666C5.10417 12.8809 5.24414 13.2552 5.24414 13.7891C5.24414 14.3099 5.10417 14.6875 4.82422 14.9219C4.54427 15.1497 4.20898 15.2637 3.81836 15.2637C3.41471 15.2637 3.07292 15.1497 2.79297 14.9219C2.51953 14.6875 2.38281 14.3099 2.38281 13.7891Z" fill="#5C6470"/>
</svg>
