<svg width="20" height="20" viewBox="0 0 20 20" fill="none" xmlns="http://www.w3.org/2000/svg">
<path d="M15 9V7H13V9H3V5H17V9H15ZM4 2V0H6V2H19.008C19.556 2 20 2.445 20 2.993V19.007C19.9982 19.2696 19.8931 19.521 19.7075 19.7068C19.5219 19.8926 19.2706 19.9979 19.008 20H0.992C0.728813 19.9997 0.476497 19.895 0.290489 19.7088C0.104482 19.5226 -1.33455e-07 19.2702 0 19.007V2.993C0.00183004 2.73038 0.1069 2.47902 0.292513 2.29322C0.478126 2.10742 0.72938 2.00209 0.992 2H4ZM2 4V18H18V4H2ZM6 17C5.20435 17 4.44129 16.6839 3.87868 16.1213C3.31607 15.5587 3 14.7956 3 14C3 13.2044 3.31607 12.4413 3.87868 11.8787C4.44129 11.3161 5.20435 11 6 11C6.79565 11 7.55871 11.3161 8.12132 11.8787C8.68393 12.4413 9 13.2044 9 14C9 14.7956 8.68393 15.5587 8.12132 16.1213C7.55871 16.6839 6.79565 17 6 17Z" fill="#1893FF"/>
</svg>
