<svg width="56" height="46" viewBox="0 0 56 46" fill="none" xmlns="http://www.w3.org/2000/svg">
<path d="M9.30062 10.3625L1.48313 3.85002L5.02063 0.9021L54.5181 42.1521L50.9806 45.0979L42.7056 38.2021C38.3087 40.5262 33.2075 41.757 28.0006 41.75C14.5206 41.75 3.30562 33.6667 0.953125 23C2.0282 18.1473 4.9572 13.7144 9.30312 10.3625H9.30062ZM34.8931 31.6917L31.2331 28.6417C29.8332 29.1998 28.2601 29.3824 26.7305 29.1641C25.2008 28.9459 23.7901 28.3376 22.6928 27.4232C21.5955 26.5088 20.8655 25.3332 20.6037 24.0585C20.3418 22.7838 20.5608 21.4728 21.2306 20.3063L17.5706 17.2563C15.9799 19.2594 15.2688 21.659 15.5577 24.049C15.8466 26.4389 17.1178 28.6721 19.1559 30.3706C21.1941 32.0691 23.874 33.1284 26.7419 33.3691C29.6098 33.6099 32.4894 33.0173 34.8931 31.6917V31.6917ZM17.9356 5.83335C21.0531 4.81252 24.4506 4.25002 28.0006 4.25002C41.4806 4.25002 52.6956 12.3334 55.0481 23C54.2821 26.4702 52.5603 29.745 50.0181 32.5667L40.3681 24.525C40.6548 22.9159 40.4852 21.2732 39.8729 19.7285C39.2607 18.1838 38.2228 16.78 36.8425 15.6297C35.4621 14.4794 33.7776 13.6145 31.924 13.1043C30.0704 12.5941 28.0991 12.4528 26.1681 12.6917L17.9356 5.83543V5.83335Z" fill="#5C6470"/>
</svg>
