<svg width="24" height="24" viewBox="0 0 24 24" fill="none" xmlns="http://www.w3.org/2000/svg">
<g clip-path="url(#clip0_7922_312)">
<path fill-rule="evenodd" clip-rule="evenodd" d="M23.3457 13.625C23.627 19.2715 21.541 22.6094 17.8438 24C14.2735 22.6953 12.1563 19.5059 12.3203 13.5391C14.3014 13.6865 16.2653 13.0819 17.8203 11.8457C19.4043 12.8496 21.4238 13.7988 23.3438 13.625H23.3457ZM12.9102 2.36719L16.9531 6.1543H12.9102V2.36719ZM4.44923 11.0879C4.49167 11.0413 4.5432 11.004 4.60065 10.9781C4.65809 10.9522 4.72023 10.9384 4.78322 10.9375H12.957C13.0219 10.9377 13.0859 10.9518 13.1448 10.9787C13.2038 11.0056 13.2563 11.0449 13.2988 11.0938C13.3859 11.1959 13.4338 11.3257 13.4338 11.46C13.4338 11.5942 13.3859 11.724 13.2988 11.8262V11.8262C13.2695 11.8572 13.2368 11.8847 13.2012 11.9082C13.0449 11.9375 12.8887 11.9609 12.7324 11.9824H4.79103C4.72614 11.9821 4.66202 11.9682 4.60282 11.9417C4.54362 11.9151 4.49063 11.8764 4.44728 11.8281C4.35839 11.7261 4.30943 11.5953 4.30943 11.46C4.30943 11.3246 4.35839 11.1939 4.44728 11.0918L4.44923 11.0879ZM4.44923 14.3555C4.49186 14.3065 4.54434 14.2671 4.60324 14.2399C4.66214 14.2126 4.72613 14.1981 4.79103 14.1973H10.4805C10.4981 14.5547 10.5215 14.9043 10.5527 15.2461H4.79103C4.7261 15.246 4.66191 15.2323 4.60267 15.2057C4.54343 15.1791 4.49048 15.1403 4.44728 15.0918C4.35839 14.9897 4.30943 14.859 4.30943 14.7236C4.30943 14.5883 4.35839 14.4575 4.44728 14.3555H4.44923ZM4.44923 17.6211C4.49219 17.5727 4.54478 17.5338 4.60364 17.5069C4.66249 17.48 4.72632 17.4657 4.79103 17.4648H10.875C10.9492 17.8255 11.0332 18.1751 11.127 18.5137H4.79103C4.72589 18.5138 4.66149 18.4998 4.60219 18.4729C4.54288 18.4459 4.49006 18.4066 4.44728 18.3574C4.35795 18.2553 4.30929 18.1239 4.31056 17.9883C4.31102 17.8532 4.36027 17.7228 4.44923 17.6211V17.6211ZM4.44923 7.82032C4.49186 7.77137 4.54434 7.73198 4.60324 7.70471C4.66214 7.67745 4.72613 7.66293 4.79103 7.66212H9.47853C9.54289 7.66223 9.60648 7.67604 9.66508 7.70265C9.72367 7.72925 9.77593 7.76804 9.81837 7.81641C9.90815 7.91902 9.95685 8.05118 9.95509 8.18751C9.95517 8.32236 9.90663 8.45273 9.81837 8.55469C9.77564 8.60285 9.72336 8.64161 9.66486 8.66851C9.60636 8.69541 9.54291 8.70986 9.47853 8.71094H4.79103C4.72614 8.71064 4.66202 8.69676 4.60282 8.67019C4.54362 8.64361 4.49063 8.60494 4.44728 8.55665C4.35798 8.45376 4.30936 8.32178 4.31056 8.18555C4.30886 8.0483 4.35829 7.91532 4.44923 7.81251V7.82032ZM4.44923 4.78126C4.49186 4.73231 4.54434 4.69291 4.60324 4.66565C4.66214 4.63839 4.72613 4.62387 4.79103 4.62305H7.36916C7.43299 4.62344 7.49604 4.6372 7.55424 4.66343C7.61243 4.68967 7.66449 4.72781 7.70705 4.7754C7.79594 4.87745 7.8449 5.00822 7.8449 5.14356C7.8449 5.2789 7.79594 5.40967 7.70705 5.51172C7.66447 5.56007 7.61222 5.59896 7.55369 5.62587C7.49515 5.65278 7.43162 5.66713 7.3672 5.66798H4.79103C4.7261 5.66792 4.66191 5.65415 4.60267 5.62756C4.54343 5.60096 4.49048 5.56216 4.44728 5.51368C4.35839 5.41162 4.30943 5.28085 4.30943 5.14551C4.30943 5.01017 4.35839 4.87941 4.44728 4.77735L4.44923 4.78126ZM19.2031 6.69727C19.2022 6.55148 19.1539 6.40994 19.0654 6.29403C18.977 6.17811 18.8533 6.09411 18.7129 6.05469L12.7559 0.248053C12.6935 0.170265 12.6144 0.107558 12.5245 0.0646079C12.4345 0.0216582 12.336 -0.000424836 12.2363 6.19036e-06H1.84377C1.5226 6.19036e-06 1.2146 0.127587 0.987503 0.354682C0.760408 0.581776 0.632828 0.889783 0.632828 1.21094V21.9258C0.632023 22.0852 0.663051 22.2431 0.724092 22.3903C0.785132 22.5376 0.874956 22.6711 0.988297 22.7832C1.21563 23.0093 1.52313 23.1364 1.84377 23.1367H13.5078C13.1403 22.7144 12.8084 22.2623 12.5156 21.7852H1.98439V1.34571H11.5547V6.83594C11.5552 7.01587 11.6271 7.18825 11.7545 7.31529C11.8819 7.44234 12.0545 7.51368 12.2344 7.51368H17.8516V9.82227C18.3086 10.1113 18.7591 10.375 19.2031 10.6133V6.69727V6.69727ZM14.8399 17.3672L15.8965 17.3535C16.1777 17.4004 16.7559 17.916 16.959 18.1348C17.1328 17.8574 17.3125 17.5918 17.4981 17.334C17.7038 17.0475 17.9147 16.7741 18.1309 16.5137C18.3652 16.2285 18.6094 15.957 18.8594 15.6973C19.0762 15.4707 19.4668 15.0137 19.75 14.9043C19.7584 14.9022 19.7671 14.9022 19.7754 14.9043H20.9317C20.9498 14.9043 20.9672 14.9115 20.98 14.9243C20.9928 14.9371 21 14.9545 21 14.9727C21.0001 14.9819 20.9983 14.991 20.9946 14.9994C20.9909 15.0078 20.9854 15.0154 20.9785 15.0215L20.75 15.2695C20.3932 15.6602 20.0534 16.0619 19.7305 16.4746C19.4043 16.8867 19.0938 17.3066 18.8008 17.7305C18.5078 18.1543 18.2324 18.5801 17.9707 19.0156C17.709 19.4512 17.459 19.9004 17.2266 20.3516L17.0801 20.6328C17.0714 20.6485 17.0571 20.6602 17.04 20.6657C17.0229 20.6711 17.0045 20.6698 16.9883 20.6621C16.9751 20.6541 16.9643 20.6426 16.957 20.6289L16.8242 20.3438C16.7054 20.0846 16.571 19.8328 16.4219 19.5899C16.277 19.3522 16.1165 19.1245 15.9414 18.9082C15.767 18.6928 15.5778 18.4898 15.375 18.3008C15.1678 18.1087 14.9465 17.9324 14.7129 17.7734C14.7008 17.7649 14.6917 17.7527 14.6872 17.7386C14.6826 17.7245 14.6827 17.7093 14.6875 17.6953L14.7715 17.4141C14.7761 17.3997 14.7853 17.3871 14.7976 17.3783C14.8099 17.3695 14.8247 17.3649 14.8399 17.3652V17.3672Z" fill="white"/>
</g>
<defs>
<clipPath id="clip0_7922_312">
<rect width="22.7383" height="24" fill="white" transform="translate(0.632812)"/>
</clipPath>
</defs>
</svg>
