<svg width="18" height="18" viewBox="0 0 18 18" fill="none" xmlns="http://www.w3.org/2000/svg">
<path d="M9.4275 12.9675C9.28698 12.8278 9.09689 12.7494 8.89875 12.7494C8.70061 12.7494 8.51052 12.8278 8.37 12.9675C8.29992 13.0389 8.24394 13.1229 8.205 13.215C8.13525 13.3986 8.13525 13.6014 8.205 13.785C8.24577 13.8761 8.30154 13.9598 8.37 14.0325C8.43911 14.1 8.52061 14.1534 8.61 14.19C8.70249 14.2294 8.80196 14.2498 8.9025 14.25C9.02534 14.2494 9.14614 14.2186 9.2543 14.1604C9.36246 14.1021 9.45466 14.0182 9.5228 13.916C9.59094 13.8138 9.63293 13.6964 9.64508 13.5742C9.65724 13.452 9.63918 13.3286 9.5925 13.215C9.55637 13.1214 9.50003 13.0369 9.4275 12.9675ZM15 6.705C14.9922 6.6361 14.9771 6.56822 14.955 6.5025V6.435C14.9189 6.35788 14.8708 6.287 14.8125 6.225L10.3125 1.725C10.2505 1.66666 10.1796 1.61856 10.1025 1.5825H10.035C9.95881 1.53881 9.87467 1.51076 9.7875 1.5H5.25C4.65326 1.5 4.08097 1.73705 3.65901 2.15901C3.23705 2.58097 3 3.15326 3 3.75V14.25C3 14.8467 3.23705 15.419 3.65901 15.841C4.08097 16.2629 4.65326 16.5 5.25 16.5H12.75C13.3467 16.5 13.919 16.2629 14.341 15.841C14.7629 15.419 15 14.8467 15 14.25V6.75C15 6.75 15 6.75 15 6.705ZM10.5 4.0575L12.4425 6H11.25C11.0511 6 10.8603 5.92098 10.7197 5.78033C10.579 5.63968 10.5 5.44891 10.5 5.25V4.0575ZM13.5 14.25C13.5 14.4489 13.421 14.6397 13.2803 14.7803C13.1397 14.921 12.9489 15 12.75 15H5.25C5.05109 15 4.86032 14.921 4.71967 14.7803C4.57902 14.6397 4.5 14.4489 4.5 14.25V3.75C4.5 3.55109 4.57902 3.36032 4.71967 3.21967C4.86032 3.07902 5.05109 3 5.25 3H9V5.25C9 5.84674 9.23705 6.41903 9.65901 6.84099C10.081 7.26295 10.6533 7.5 11.25 7.5H13.5V14.25ZM8.9025 7.5C8.5073 7.49975 8.119 7.60359 7.77668 7.80108C7.43436 7.99857 7.1501 8.28274 6.9525 8.625C6.89824 8.71036 6.8618 8.80582 6.84538 8.90563C6.82896 9.00544 6.83291 9.10754 6.85697 9.20579C6.88104 9.30404 6.92473 9.3964 6.98541 9.47733C7.0461 9.55825 7.12253 9.62606 7.2101 9.67668C7.29768 9.7273 7.39459 9.75969 7.495 9.77188C7.59541 9.78408 7.69726 9.77584 7.7944 9.74766C7.89155 9.71947 7.98199 9.67193 8.06029 9.60789C8.13858 9.54385 8.20311 9.46463 8.25 9.375C8.31608 9.26055 8.41123 9.16559 8.52581 9.09973C8.64039 9.03388 8.77034 8.99948 8.9025 9C9.10141 9 9.29218 9.07902 9.43283 9.21967C9.57348 9.36032 9.6525 9.55109 9.6525 9.75C9.6525 9.94891 9.57348 10.1397 9.43283 10.2803C9.29218 10.421 9.10141 10.5 8.9025 10.5C8.70359 10.5 8.51282 10.579 8.37217 10.7197C8.23152 10.8603 8.1525 11.0511 8.1525 11.25C8.1525 11.4489 8.23152 11.6397 8.37217 11.7803C8.51282 11.921 8.70359 12 8.9025 12C9.49924 12 10.0715 11.7629 10.4935 11.341C10.9154 10.919 11.1525 10.3467 11.1525 9.75C11.1525 9.15326 10.9154 8.58097 10.4935 8.15901C10.0715 7.73705 9.49924 7.5 8.9025 7.5Z" fill="#EC7F31"/>
</svg>
