<svg width="22" height="22" viewBox="0 0 22 22" fill="none" xmlns="http://www.w3.org/2000/svg">
<path d="M11 20.1666C5.93729 20.1666 1.83337 16.0627 1.83337 10.9999C1.83337 5.93717 5.93729 1.83325 11 1.83325C16.0628 1.83325 20.1667 5.93717 20.1667 10.9999C20.1667 16.0627 16.0628 20.1666 11 20.1666Z" fill="#FF1749"/>
<path d="M13.3333 5.91675L15.625 8.20841V14.6219C15.625 14.8767 15.421 15.0834 15.1699 15.0834H7.83013C7.57896 15.0834 7.375 14.8749 7.375 14.6287V6.37141C7.375 6.12025 7.57988 5.91675 7.83288 5.91675H13.3333ZM12.875 6.83341H8.29167V14.1667H14.7083V8.66675H12.875V6.83341ZM11.9583 9.12508V10.9584H13.3333V11.8751H11.0417V9.12508H11.9583Z" fill="white"/>
</svg>
