<svg width="12" height="12" viewBox="0 0 12 12" fill="none" xmlns="http://www.w3.org/2000/svg">
<path d="M0.166748 0.75H11.3306C11.3817 0.749915 11.432 0.763269 11.4763 0.788725C11.5206 0.814181 11.5575 0.850844 11.5832 0.89504C11.6089 0.939235 11.6225 0.98941 11.6227 1.04054C11.6229 1.09166 11.6097 1.14194 11.5843 1.18633L9.50008 4.83333L11.5843 8.48033C11.6097 8.52473 11.6229 8.57501 11.6227 8.62613C11.6225 8.67726 11.6089 8.72743 11.5832 8.77163C11.5575 8.81582 11.5206 8.85249 11.4763 8.87794C11.432 8.9034 11.3817 8.91675 11.3306 8.91667H1.33341V11.8333H0.166748V0.75Z" fill="url(#paint0_linear)"/>
<defs>
<linearGradient id="paint0_linear" x1="5.89474" y1="0.75" x2="5.89474" y2="11.8333" gradientUnits="userSpaceOnUse">
<stop stop-color="#1893FF" stop-opacity="0.8"/>
<stop offset="1" stop-color="#989EA3"/>
</linearGradient>
</defs>
</svg>
