<svg width="18" height="16" viewBox="0 0 18 16" fill="none" xmlns="http://www.w3.org/2000/svg">
<path d="M9.34239 2.16667H16.4974C16.7184 2.16667 16.9304 2.25446 17.0867 2.41074C17.2429 2.56702 17.3307 2.77899 17.3307 3V14.6667C17.3307 14.8877 17.2429 15.0996 17.0867 15.2559C16.9304 15.4122 16.7184 15.5 16.4974 15.5H1.4974C1.27638 15.5 1.06442 15.4122 0.90814 15.2559C0.75186 15.0996 0.664063 14.8877 0.664062 14.6667V1.33333C0.664062 1.11232 0.75186 0.900358 0.90814 0.744078C1.06442 0.587797 1.27638 0.5 1.4974 0.5H7.67573L9.34239 2.16667ZM2.33073 2.16667V13.8333H15.6641V3.83333H8.6524L6.98573 2.16667H2.33073ZM8.16406 10.5H9.83073V12.1667H8.16406V10.5ZM8.16406 5.5H9.83073V9.66667H8.16406V5.5Z" fill="#EC7F31"/>
</svg>
