<svg width="11" height="11" viewBox="0 0 11 11" fill="none" xmlns="http://www.w3.org/2000/svg">
<path d="M0.449685 0.149963L9.85218 3.28396C9.90085 3.30009 9.94338 3.3308 9.97401 3.37191C10.0046 3.41303 10.0219 3.46257 10.0234 3.51382C10.0249 3.56506 10.0107 3.61554 9.98255 3.65841C9.95443 3.70128 9.9138 3.73446 9.86618 3.75346L5.49968 5.49996L3.28718 9.92496C3.26467 9.97002 3.22907 10.0072 3.18505 10.0317C3.14103 10.0562 3.09063 10.0668 3.04048 10.0622C2.99032 10.0575 2.94274 10.0378 2.90397 10.0057C2.86519 9.97351 2.83704 9.93039 2.82318 9.88196L0.129685 0.455463C0.117208 0.41167 0.116929 0.365302 0.128878 0.321362C0.140826 0.277422 0.164549 0.23758 0.197485 0.206137C0.230421 0.174693 0.271319 0.152842 0.315765 0.142943C0.360211 0.133043 0.406517 0.13547 0.449685 0.149963Z" fill="#00B533"/>
</svg>
