<svg width="15" height="15" viewBox="0 0 46 44" fill="#F1F3F8" xmlns="http://www.w3.org/2000/svg">
<path d="M18.7824 19.9149L38.6324 0.0649414L43.9349 5.36744L40.3999 8.90244L45.7024 14.2049L36.8649 23.0449L31.5624 17.7424L24.0874 25.2174C25.4638 27.8657 25.8477 30.9189 25.1696 33.8254C24.4915 36.7319 22.7963 39.3001 20.3902 41.0659C17.984 42.8317 15.0257 43.6787 12.0496 43.4539C9.07349 43.229 6.27595 41.9472 4.16241 39.8399C2.04779 37.7287 0.759437 34.9298 0.530802 31.9505C0.302168 28.9711 1.14838 26.0084 2.91611 23.5992C4.68383 21.1901 7.25609 19.4939 10.1668 18.818C13.0774 18.1421 16.134 18.5313 18.7824 19.9149ZM16.5349 34.5349C17.0125 34.0737 17.3934 33.522 17.6554 32.912C17.9175 32.3019 18.0554 31.6458 18.0612 30.9819C18.0669 30.3181 17.9404 29.6597 17.689 29.0452C17.4376 28.4307 17.0663 27.8724 16.5969 27.403C16.1274 26.9335 15.5692 26.5622 14.9547 26.3108C14.3402 26.0594 13.6818 25.9329 13.0179 25.9387C12.354 25.9445 11.6979 26.0824 11.0879 26.3444C10.4779 26.6065 9.92614 26.9874 9.46491 27.4649C8.55412 28.408 8.05014 29.671 8.06154 30.9819C8.07293 32.2929 8.59877 33.547 9.52581 34.474C10.4529 35.4011 11.7069 35.9269 13.0179 35.9383C14.3289 35.9497 15.5919 35.4457 16.5349 34.5349Z" fill="#5C6470"/>
</svg>
