<svg width="24" height="24" viewBox="0 0 24 24" fill="none" xmlns="http://www.w3.org/2000/svg">
<path d="M11.4619 8.28994C11.3689 8.19621 11.2583 8.12182 11.1365 8.07105C11.0146 8.02028 10.8839 7.99414 10.7519 7.99414C10.6199 7.99414 10.4892 8.02028 10.3673 8.07105C10.2455 8.12182 10.1349 8.19621 10.0419 8.28994L7.04189 11.2899C6.94816 11.3829 6.87377 11.4935 6.823 11.6154C6.77223 11.7372 6.74609 11.8679 6.74609 11.9999C6.74609 12.132 6.77223 12.2627 6.823 12.3845C6.87377 12.5064 6.94816 12.617 7.04189 12.7099L10.0419 15.7099C10.1349 15.8037 10.2455 15.8781 10.3673 15.9288C10.4892 15.9796 10.6199 16.0057 10.7519 16.0057C10.8839 16.0057 11.0146 15.9796 11.1365 15.9288C11.2583 15.8781 11.3689 15.8037 11.4619 15.7099C11.5556 15.617 11.63 15.5064 11.6808 15.3845C11.7316 15.2627 11.7577 15.132 11.7577 14.9999C11.7577 14.8679 11.7316 14.7372 11.6808 14.6154C11.63 14.4935 11.5556 14.3829 11.4619 14.2899L9.16189 11.9999L11.4619 9.70994C11.5556 9.61698 11.63 9.50638 11.6808 9.38452C11.7316 9.26266 11.7577 9.13195 11.7577 8.99994C11.7577 8.86793 11.7316 8.73722 11.6808 8.61536C11.63 8.4935 11.5556 8.3829 11.4619 8.28994ZM14.6619 11.9999L17.0019 9.70994C17.1902 9.52164 17.296 9.26624 17.296 8.99994C17.296 8.73364 17.1902 8.47824 17.0019 8.28994C16.8136 8.10164 16.5582 7.99585 16.2919 7.99585C16.0256 7.99585 15.7702 8.10164 15.5819 8.28994L12.5819 11.2899C12.4882 11.3829 12.4138 11.4935 12.363 11.6154C12.3122 11.7372 12.2861 11.8679 12.2861 11.9999C12.2861 12.132 12.3122 12.2627 12.363 12.3845C12.4138 12.5064 12.4882 12.617 12.5819 12.7099L15.5819 15.7099C15.6749 15.8037 15.7855 15.8781 15.9073 15.9288C16.0292 15.9796 16.1599 16.0057 16.2919 16.0057C16.4239 16.0057 16.5546 15.9796 16.6765 15.9288C16.7983 15.8781 16.9089 15.8037 17.0019 15.7099C17.0956 15.617 17.17 15.5064 17.2208 15.3845C17.2716 15.2627 17.2977 15.132 17.2977 14.9999C17.2977 14.8679 17.2716 14.7372 17.2208 14.6154C17.17 14.4935 17.0956 14.3829 17.0019 14.2899L14.6619 11.9999Z" fill="#374151"/>
</svg>
