<svg
        width="47"
        height="38"
        viewBox="0 0 47 38"
        fill="none"
        xmlns="http://www.w3.org/2000/svg"
      >
        <path
          class="part-1"
          d="M31.5273 17.5965L39.2936 8.50803L44.0014 3H36.7714H33.583H26.353L24.8586 4.74866L17.4939 13.3685L13.8789 17.5965L17.4939 21.8296L21.1089 17.5965L28.8753 8.50803H32.0661L27.9123 13.3685L24.2973 17.5965L27.9123 21.8296L34.4587 29.4894L39.1639 35L42.5993 30.9811L42.7789 30.7694L41.6862 29.4894L31.5273 17.5965Z"
          fill="#1893FF"
        />
        <path
          class="part-2"
          d="M32.031 31.8003L30.0349 29.4918L25.4509 24.1865L21.8926 20.0703L18.8408 23.6231L22.4744 27.8544L23.8812 29.4918H20.4783L10.2672 17.5992L16.8623 9.92027L22.8054 3H15.5382L13.5973 5.26086L6.63358 13.3704L3 17.5992L6.63358 21.8305L15.137 31.7327L17.9431 35H22.8154H28.6106H34.7969L32.031 31.8003Z"
          fill="#ED3237"
        />
      </svg>