<svg width="12" height="15" viewBox="0 0 12 15" fill="none" xmlns="http://www.w3.org/2000/svg">
<path d="M6.66667 6.33332V2.99999H5.33334V7.66666H9.33334V6.33332H6.66667ZM10.2427 10.576L6 14.8187L1.75734 10.576C0.918228 9.73687 0.346791 8.66777 0.115286 7.50389C-0.11622 6.34 0.00260456 5.13361 0.456732 4.03726C0.91086 2.9409 1.6799 2.00384 2.66659 1.34455C3.65328 0.685266 4.81332 0.333374 6 0.333374C7.18669 0.333374 8.34672 0.685266 9.33342 1.34455C10.3201 2.00384 11.0891 2.9409 11.5433 4.03726C11.9974 5.13361 12.1162 6.34 11.8847 7.50389C11.6532 8.66777 11.0818 9.73687 10.2427 10.576V10.576Z" fill="white"/>
</svg>
