<svg width="20" height="20" viewBox="0 0 20 20" fill="none" xmlns="http://www.w3.org/2000/svg">
<path d="M9.99992 9.0004C10.3296 9.0004 10.6518 8.90265 10.9259 8.71951C11.2 8.53638 11.4136 8.27608 11.5397 7.97154C11.6659 7.66699 11.6989 7.33188 11.6346 7.00858C11.5703 6.68528 11.4115 6.38831 11.1784 6.15522C10.9453 5.92213 10.6484 5.7634 10.3251 5.69909C10.0018 5.63478 9.66666 5.66779 9.36211 5.79393C9.05757 5.92008 8.79727 6.1337 8.61414 6.40778C8.431 6.68186 8.33325 7.0041 8.33325 7.33373C8.33325 7.77576 8.50885 8.19968 8.82141 8.51224C9.13397 8.8248 9.55789 9.0004 9.99992 9.0004ZM9.40825 14.7587C9.48572 14.8368 9.57789 14.8988 9.67944 14.9411C9.78099 14.9834 9.88991 15.0052 9.99992 15.0052C10.1099 15.0052 10.2188 14.9834 10.3204 14.9411C10.4219 14.8988 10.5141 14.8368 10.5916 14.7587L13.9999 11.3421C14.7915 10.5509 15.3307 9.54264 15.5493 8.44495C15.7679 7.34726 15.656 6.2094 15.2278 5.17531C14.7996 4.14121 14.0744 3.25732 13.1438 2.63545C12.2133 2.01357 11.1192 1.68164 9.99992 1.68164C8.88068 1.68164 7.78658 2.01357 6.85601 2.63545C5.92544 3.25732 5.2002 4.14121 4.77202 5.17531C4.34384 6.2094 4.23196 7.34726 4.45053 8.44495C4.66909 9.54264 5.20829 10.5509 5.99992 11.3421L9.40825 14.7587ZM6.02492 6.9504C6.08186 6.35625 6.27077 5.78231 6.57786 5.27049C6.88494 4.75868 7.30246 4.32191 7.79992 3.99207C8.45342 3.56298 9.21814 3.33436 9.99992 3.33436C10.7817 3.33436 11.5464 3.56298 12.1999 3.99207C12.6941 4.32077 13.1092 4.7549 13.4155 5.26322C13.7218 5.77154 13.9117 6.34142 13.9715 6.93189C14.0312 7.52235 13.9594 8.11872 13.7612 8.67811C13.5629 9.2375 13.2432 9.74601 12.8249 10.1671L9.99992 12.9921L7.17492 10.1671C6.75619 9.75009 6.43569 9.24501 6.23676 8.68857C6.03782 8.13213 5.96545 7.53833 6.02492 6.9504ZM15.8333 16.6671H4.16659C3.94557 16.6671 3.73361 16.7549 3.57733 16.9111C3.42105 17.0674 3.33325 17.2794 3.33325 17.5004C3.33325 17.7214 3.42105 17.9334 3.57733 18.0897C3.73361 18.2459 3.94557 18.3337 4.16659 18.3337H15.8333C16.0543 18.3337 16.2662 18.2459 16.4225 18.0897C16.5788 17.9334 16.6666 17.7214 16.6666 17.5004C16.6666 17.2794 16.5788 17.0674 16.4225 16.9111C16.2662 16.7549 16.0543 16.6671 15.8333 16.6671Z" fill="#374151"/>
</svg>
