<svg width="157" height="35" viewBox="0 0 157 35" fill="none" xmlns="http://www.w3.org/2000/svg">
<path d="M28.5273 14.5965L36.2936 5.50803L41.0014 0H33.7714H30.583H23.353L21.8586 1.74866L14.4939 10.3685L10.8789 14.5965L14.4939 18.8296L18.1089 14.5965L25.8753 5.50803H29.0661L24.9123 10.3685L21.2973 14.5965L24.9123 18.8296L31.4587 26.4894L36.1639 32L39.5993 27.9811L39.7789 27.7694L38.6862 26.4894L28.5273 14.5965Z" fill="#2074B9"/>
<path d="M29.031 28.8003L27.0349 26.4918L22.4509 21.1865L18.8926 17.0703L15.8408 20.6231L19.4744 24.8544L20.8812 26.4918H17.4783L7.26716 14.5992L13.8623 6.92027L19.8054 0H12.5382L10.5973 2.26086L3.63358 10.3704L0 14.5992L3.63358 18.8305L12.137 28.7327L14.9431 32H19.8154H25.6106H31.7969L29.031 28.8003Z" fill="#ED3237"/>
<path d="M51.9375 32V24.8613H53.1094V31.0039H56.1416V32H51.9375ZM62.0449 29.2852C62.0449 29.7344 61.9863 30.1331 61.8691 30.4814C61.752 30.8298 61.5811 31.1243 61.3564 31.3652C61.1318 31.6029 60.8617 31.7852 60.5459 31.9121C60.2301 32.0358 59.8737 32.0977 59.4766 32.0977C59.1055 32.0977 58.7653 32.0358 58.4561 31.9121C58.1468 31.7852 57.8783 31.6029 57.6504 31.3652C57.4258 31.1243 57.2516 30.8298 57.1279 30.4814C57.0042 30.1331 56.9424 29.7344 56.9424 29.2852C56.9424 28.6895 57.0449 28.1849 57.25 27.7715C57.4583 27.3548 57.7546 27.0374 58.1387 26.8193C58.5228 26.6012 58.9801 26.4922 59.5107 26.4922C60.0088 26.4922 60.4482 26.6012 60.8291 26.8193C61.21 27.0374 61.5078 27.3548 61.7227 27.7715C61.9375 28.1882 62.0449 28.6927 62.0449 29.2852ZM58.124 29.2852C58.124 29.679 58.1712 30.016 58.2656 30.2959C58.3633 30.5758 58.513 30.7907 58.7148 30.9404C58.9167 31.0869 59.1771 31.1602 59.4961 31.1602C59.8151 31.1602 60.0755 31.0869 60.2773 30.9404C60.4792 30.7907 60.6273 30.5758 60.7217 30.2959C60.8161 30.016 60.8633 29.679 60.8633 29.2852C60.8633 28.8913 60.8161 28.5576 60.7217 28.2842C60.6273 28.0075 60.4792 27.7975 60.2773 27.6543C60.0755 27.5078 59.8135 27.4346 59.4912 27.4346C59.016 27.4346 58.6693 27.5941 58.4512 27.9131C58.2331 28.2321 58.124 28.6895 58.124 29.2852ZM64.9062 34.4023C64.1738 34.4023 63.6123 34.2705 63.2217 34.0068C62.8311 33.7432 62.6357 33.3737 62.6357 32.8984C62.6357 32.5664 62.7399 32.2848 62.9482 32.0537C63.1566 31.8258 63.4544 31.668 63.8418 31.5801C63.6953 31.515 63.5684 31.4141 63.4609 31.2773C63.3568 31.1374 63.3047 30.9827 63.3047 30.8135C63.3047 30.6117 63.3617 30.4391 63.4756 30.2959C63.5895 30.1527 63.7604 30.0143 63.9883 29.8809C63.7051 29.7604 63.4772 29.5651 63.3047 29.2949C63.1354 29.0215 63.0508 28.7008 63.0508 28.333C63.0508 27.9424 63.1338 27.6104 63.2998 27.3369C63.4658 27.0602 63.7083 26.8503 64.0273 26.707C64.3464 26.5605 64.7321 26.4873 65.1846 26.4873C65.2822 26.4873 65.388 26.4938 65.502 26.5068C65.6191 26.5166 65.7266 26.5296 65.8242 26.5459C65.9251 26.5589 66.0016 26.5736 66.0537 26.5898H67.9238V27.2295L67.0059 27.4004C67.0938 27.5241 67.1637 27.6657 67.2158 27.8252C67.2679 27.9814 67.2939 28.1523 67.2939 28.3379C67.2939 28.8978 67.1003 29.3389 66.7129 29.6611C66.3288 29.9801 65.7982 30.1396 65.1211 30.1396C64.9583 30.1331 64.8005 30.1201 64.6475 30.1006C64.5303 30.1722 64.4408 30.252 64.3789 30.3398C64.3171 30.4245 64.2861 30.5205 64.2861 30.6279C64.2861 30.7158 64.3171 30.7874 64.3789 30.8428C64.4408 30.8949 64.5319 30.9339 64.6523 30.96C64.776 30.986 64.9258 30.999 65.1016 30.999H66.0342C66.6266 30.999 67.0791 31.1243 67.3916 31.375C67.7041 31.6257 67.8604 31.9935 67.8604 32.4785C67.8604 33.0938 67.6064 33.5674 67.0986 33.8994C66.5908 34.2347 65.86 34.4023 64.9062 34.4023ZM64.9502 33.5967C65.3506 33.5967 65.6875 33.5576 65.9609 33.4795C66.2344 33.4014 66.4411 33.2891 66.5811 33.1426C66.721 32.9993 66.791 32.8285 66.791 32.6299C66.791 32.4541 66.7471 32.319 66.6592 32.2246C66.5713 32.1302 66.4395 32.0651 66.2637 32.0293C66.0879 31.9935 65.8698 31.9756 65.6094 31.9756H64.7598C64.5482 31.9756 64.361 32.0081 64.1982 32.0732C64.0355 32.1416 63.9085 32.2393 63.8174 32.3662C63.7295 32.4932 63.6855 32.6462 63.6855 32.8252C63.6855 33.0726 63.7946 33.263 64.0127 33.3965C64.234 33.5299 64.5465 33.5967 64.9502 33.5967ZM65.1748 29.3877C65.5101 29.3877 65.7591 29.2965 65.9219 29.1143C66.0846 28.9287 66.166 28.6683 66.166 28.333C66.166 27.9684 66.0814 27.695 65.9121 27.5127C65.7461 27.3304 65.4987 27.2393 65.1699 27.2393C64.8477 27.2393 64.6019 27.332 64.4326 27.5176C64.2666 27.7031 64.1836 27.9782 64.1836 28.3428C64.1836 28.6715 64.2666 28.9287 64.4326 29.1143C64.6019 29.2965 64.8493 29.3877 65.1748 29.3877ZM70.0576 26.5947V32H68.9102V26.5947H70.0576ZM69.4912 24.5244C69.667 24.5244 69.8184 24.5716 69.9453 24.666C70.0755 24.7604 70.1406 24.9232 70.1406 25.1543C70.1406 25.3822 70.0755 25.5449 69.9453 25.6426C69.8184 25.737 69.667 25.7842 69.4912 25.7842C69.3089 25.7842 69.1543 25.737 69.0273 25.6426C68.9036 25.5449 68.8418 25.3822 68.8418 25.1543C68.8418 24.9232 68.9036 24.7604 69.0273 24.666C69.1543 24.5716 69.3089 24.5244 69.4912 24.5244ZM75.3359 30.457C75.3359 30.8118 75.2497 31.1113 75.0771 31.3555C74.9046 31.5996 74.6523 31.7852 74.3203 31.9121C73.9915 32.0358 73.5879 32.0977 73.1094 32.0977C72.7318 32.0977 72.4062 32.07 72.1328 32.0146C71.8626 31.9626 71.6071 31.8812 71.3662 31.7705V30.7793C71.6234 30.8997 71.9115 31.0039 72.2305 31.0918C72.5527 31.1797 72.8571 31.2236 73.1436 31.2236C73.5212 31.2236 73.793 31.165 73.959 31.0479C74.125 30.9274 74.208 30.7679 74.208 30.5693C74.208 30.4521 74.1738 30.348 74.1055 30.2568C74.0404 30.1624 73.9167 30.0664 73.7344 29.9688C73.5553 29.8678 73.2917 29.7474 72.9434 29.6074C72.6016 29.4707 72.3135 29.334 72.0791 29.1973C71.8447 29.0605 71.6673 28.8962 71.5469 28.7041C71.4264 28.5088 71.3662 28.2598 71.3662 27.957C71.3662 27.4785 71.555 27.1156 71.9326 26.8682C72.3135 26.6175 72.8164 26.4922 73.4414 26.4922C73.7734 26.4922 74.0859 26.5264 74.3789 26.5947C74.6751 26.6598 74.9648 26.7559 75.248 26.8828L74.8867 27.7471C74.6426 27.6396 74.3968 27.5518 74.1494 27.4834C73.9053 27.4118 73.6562 27.376 73.4023 27.376C73.1061 27.376 72.8799 27.4215 72.7236 27.5127C72.5706 27.6038 72.4941 27.734 72.4941 27.9033C72.4941 28.0303 72.5316 28.1377 72.6064 28.2256C72.6813 28.3135 72.8099 28.4014 72.9922 28.4893C73.1777 28.5771 73.4349 28.6862 73.7637 28.8164C74.0859 28.9401 74.3643 29.0703 74.5986 29.207C74.8363 29.3405 75.0186 29.5049 75.1455 29.7002C75.2725 29.8955 75.3359 30.1478 75.3359 30.457ZM78.5879 31.1699C78.7376 31.1699 78.8857 31.1569 79.0322 31.1309C79.1787 31.1016 79.3122 31.0674 79.4326 31.0283V31.8975C79.3057 31.9528 79.1413 32 78.9395 32.0391C78.7376 32.0781 78.5277 32.0977 78.3096 32.0977C78.0036 32.0977 77.7285 32.0472 77.4844 31.9463C77.2402 31.8421 77.0465 31.6647 76.9033 31.4141C76.7601 31.1634 76.6885 30.8167 76.6885 30.374V27.4688H75.9512V26.9561L76.7422 26.5508L77.1182 25.3936H77.8408V26.5947H79.3887V27.4688H77.8408V30.3594C77.8408 30.6328 77.9092 30.8363 78.0459 30.9697C78.1826 31.1032 78.3633 31.1699 78.5879 31.1699ZM81.6787 26.5947V32H80.5312V26.5947H81.6787ZM81.1123 24.5244C81.2881 24.5244 81.4395 24.5716 81.5664 24.666C81.6966 24.7604 81.7617 24.9232 81.7617 25.1543C81.7617 25.3822 81.6966 25.5449 81.5664 25.6426C81.4395 25.737 81.2881 25.7842 81.1123 25.7842C80.93 25.7842 80.7754 25.737 80.6484 25.6426C80.5247 25.5449 80.4629 25.3822 80.4629 25.1543C80.4629 24.9232 80.5247 24.7604 80.6484 24.666C80.7754 24.5716 80.93 24.5244 81.1123 24.5244ZM85.502 32.0977C84.9909 32.0977 84.5482 31.9984 84.1738 31.7998C83.7995 31.6012 83.5114 31.2969 83.3096 30.8867C83.1077 30.4766 83.0068 29.9557 83.0068 29.3242C83.0068 28.6667 83.1175 28.1296 83.3389 27.7129C83.5602 27.2962 83.8662 26.9886 84.2568 26.79C84.6507 26.5915 85.1016 26.4922 85.6094 26.4922C85.9316 26.4922 86.223 26.5247 86.4834 26.5898C86.7471 26.6517 86.9701 26.7282 87.1523 26.8193L86.8105 27.7373C86.612 27.6559 86.4085 27.5876 86.2002 27.5322C85.9919 27.4769 85.7917 27.4492 85.5996 27.4492C85.2839 27.4492 85.0202 27.5192 84.8086 27.6592C84.6003 27.7992 84.444 28.0075 84.3398 28.2842C84.2389 28.5609 84.1885 28.9043 84.1885 29.3145C84.1885 29.7116 84.2406 30.0469 84.3447 30.3203C84.4489 30.5905 84.6035 30.7956 84.8086 30.9355C85.0137 31.0723 85.266 31.1406 85.5654 31.1406C85.8617 31.1406 86.127 31.1048 86.3613 31.0332C86.5957 30.9616 86.8171 30.8688 87.0254 30.7549V31.751C86.8203 31.8682 86.6006 31.9544 86.3662 32.0098C86.1318 32.0684 85.8438 32.0977 85.502 32.0977ZM91.9277 30.457C91.9277 30.8118 91.8415 31.1113 91.6689 31.3555C91.4964 31.5996 91.2441 31.7852 90.9121 31.9121C90.5833 32.0358 90.1797 32.0977 89.7012 32.0977C89.3236 32.0977 88.998 32.07 88.7246 32.0146C88.4544 31.9626 88.1989 31.8812 87.958 31.7705V30.7793C88.2152 30.8997 88.5033 31.0039 88.8223 31.0918C89.1445 31.1797 89.4489 31.2236 89.7354 31.2236C90.113 31.2236 90.3848 31.165 90.5508 31.0479C90.7168 30.9274 90.7998 30.7679 90.7998 30.5693C90.7998 30.4521 90.7656 30.348 90.6973 30.2568C90.6322 30.1624 90.5085 30.0664 90.3262 29.9688C90.1471 29.8678 89.8835 29.7474 89.5352 29.6074C89.1934 29.4707 88.9053 29.334 88.6709 29.1973C88.4365 29.0605 88.2591 28.8962 88.1387 28.7041C88.0182 28.5088 87.958 28.2598 87.958 27.957C87.958 27.4785 88.1468 27.1156 88.5244 26.8682C88.9053 26.6175 89.4082 26.4922 90.0332 26.4922C90.3652 26.4922 90.6777 26.5264 90.9707 26.5947C91.2669 26.6598 91.5566 26.7559 91.8398 26.8828L91.4785 27.7471C91.2344 27.6396 90.9886 27.5518 90.7412 27.4834C90.4971 27.4118 90.248 27.376 89.9941 27.376C89.6979 27.376 89.4717 27.4215 89.3154 27.5127C89.1624 27.6038 89.0859 27.734 89.0859 27.9033C89.0859 28.0303 89.1234 28.1377 89.1982 28.2256C89.2731 28.3135 89.4017 28.4014 89.584 28.4893C89.7695 28.5771 90.0267 28.6862 90.3555 28.8164C90.6777 28.9401 90.9561 29.0703 91.1904 29.207C91.4281 29.3405 91.6104 29.5049 91.7373 29.7002C91.8643 29.8955 91.9277 30.1478 91.9277 30.457Z" fill="#5C6470" fill-opacity="0.6"/>
<path d="M58.0752 6.2334C57.5537 6.2334 57.0908 6.33594 56.6865 6.54102C56.2881 6.74023 55.9512 7.03027 55.6758 7.41113C55.4062 7.79199 55.2012 8.25195 55.0605 8.79102C54.9199 9.33008 54.8496 9.93652 54.8496 10.6104C54.8496 11.5186 54.9609 12.2949 55.1836 12.9395C55.4121 13.5781 55.7637 14.0674 56.2383 14.4072C56.7129 14.7412 57.3252 14.9082 58.0752 14.9082C58.5967 14.9082 59.1182 14.8496 59.6396 14.7324C60.167 14.6152 60.7383 14.4482 61.3535 14.2314V16.5166C60.7852 16.751 60.2256 16.918 59.6748 17.0176C59.124 17.123 58.5059 17.1758 57.8203 17.1758C56.4961 17.1758 55.4062 16.9033 54.5508 16.3584C53.7012 15.8076 53.0713 15.04 52.6611 14.0557C52.251 13.0654 52.0459 11.9111 52.0459 10.5928C52.0459 9.62012 52.1777 8.72949 52.4414 7.9209C52.7051 7.1123 53.0918 6.41211 53.6016 5.82031C54.1113 5.22852 54.7412 4.77148 55.4912 4.44922C56.2412 4.12695 57.1025 3.96582 58.0752 3.96582C58.7139 3.96582 59.3525 4.04785 59.9912 4.21191C60.6357 4.37012 61.251 4.58984 61.8369 4.87109L60.958 7.08594C60.4775 6.85742 59.9941 6.6582 59.5078 6.48828C59.0215 6.31836 58.5439 6.2334 58.0752 6.2334ZM67.9102 6.97168C69.2285 6.97168 70.2393 7.25879 70.9424 7.83301C71.6455 8.40723 71.9971 9.28027 71.9971 10.4521V17H70.125L69.6064 15.6641H69.5361C69.2549 16.0156 68.9678 16.3027 68.6748 16.5254C68.3818 16.748 68.0449 16.9121 67.6641 17.0176C67.2832 17.123 66.8203 17.1758 66.2754 17.1758C65.6953 17.1758 65.1738 17.0645 64.7109 16.8418C64.2539 16.6191 63.8936 16.2793 63.6299 15.8223C63.3662 15.3594 63.2344 14.7734 63.2344 14.0645C63.2344 13.0215 63.6006 12.2539 64.333 11.7617C65.0654 11.2637 66.1641 10.9883 67.6289 10.9355L69.334 10.8828V10.4521C69.334 9.93652 69.1992 9.55859 68.9297 9.31836C68.6602 9.07812 68.2852 8.95801 67.8047 8.95801C67.3301 8.95801 66.8643 9.02539 66.4072 9.16016C65.9502 9.29492 65.4932 9.46484 65.0361 9.66992L64.1484 7.85938C64.6699 7.58398 65.2529 7.36719 65.8975 7.20898C66.5479 7.05078 67.2188 6.97168 67.9102 6.97168ZM69.334 12.4473L68.2969 12.4824C67.4297 12.5059 66.8262 12.6611 66.4863 12.9482C66.1523 13.2354 65.9854 13.6133 65.9854 14.082C65.9854 14.4922 66.1055 14.7852 66.3457 14.9609C66.5859 15.1309 66.8994 15.2158 67.2861 15.2158C67.8604 15.2158 68.3438 15.0459 68.7363 14.7061C69.1348 14.3662 69.334 13.8828 69.334 13.2559V12.4473ZM80.25 6.98926C80.3848 6.98926 80.54 6.99805 80.7158 7.01562C80.8975 7.02734 81.0439 7.04492 81.1553 7.06836L80.9531 9.58203C80.8652 9.55273 80.7393 9.53223 80.5752 9.52051C80.417 9.50293 80.2793 9.49414 80.1621 9.49414C79.8164 9.49414 79.4795 9.53809 79.1514 9.62598C78.8291 9.71387 78.5391 9.85742 78.2812 10.0566C78.0234 10.25 77.8184 10.5078 77.666 10.8301C77.5195 11.1465 77.4463 11.5361 77.4463 11.999V17H74.7656V7.17383H76.7959L77.1914 8.82617H77.3232C77.5166 8.49219 77.7568 8.1875 78.0439 7.91211C78.3369 7.63086 78.668 7.4082 79.0371 7.24414C79.4121 7.07422 79.8164 6.98926 80.25 6.98926ZM85.8135 21.3242C84.4424 21.3242 83.3936 21.084 82.667 20.6035C81.9463 20.1289 81.5859 19.4609 81.5859 18.5996C81.5859 18.0078 81.7705 17.5127 82.1396 17.1143C82.5088 16.7158 83.0508 16.4316 83.7656 16.2617C83.4902 16.1445 83.25 15.9541 83.0449 15.6904C82.8398 15.4209 82.7373 15.1367 82.7373 14.8379C82.7373 14.4629 82.8457 14.1523 83.0625 13.9062C83.2793 13.6543 83.5928 13.4082 84.0029 13.168C83.4873 12.9453 83.0771 12.5879 82.7725 12.0957C82.4736 11.6035 82.3242 11.0234 82.3242 10.3555C82.3242 9.64062 82.4795 9.03418 82.79 8.53613C83.1064 8.03223 83.5635 7.64844 84.1611 7.38477C84.7646 7.12109 85.4971 6.98926 86.3584 6.98926C86.54 6.98926 86.751 7.00098 86.9912 7.02441C87.2314 7.04785 87.4512 7.07422 87.6504 7.10352C87.8555 7.13281 87.9932 7.15625 88.0635 7.17383H91.4912V8.53613L89.9531 8.93164C90.0938 9.14844 90.1992 9.37988 90.2695 9.62598C90.3398 9.87207 90.375 10.1328 90.375 10.4082C90.375 11.4629 90.0059 12.2861 89.2676 12.8779C88.5352 13.4639 87.5156 13.7568 86.209 13.7568C85.8984 13.7393 85.6055 13.7158 85.3301 13.6865C85.1953 13.792 85.0928 13.9033 85.0225 14.0205C84.9521 14.1377 84.917 14.2607 84.917 14.3896C84.917 14.5186 84.9697 14.627 85.0752 14.7148C85.1865 14.7969 85.3506 14.8613 85.5674 14.9082C85.79 14.9492 86.0654 14.9697 86.3936 14.9697H88.0635C89.1416 14.9697 89.9619 15.2012 90.5244 15.6641C91.0928 16.127 91.377 16.8066 91.377 17.7031C91.377 18.8516 90.8965 19.7422 89.9355 20.375C88.9805 21.0078 87.6064 21.3242 85.8135 21.3242ZM85.9277 19.5752C86.5664 19.5752 87.1143 19.5137 87.5713 19.3906C88.0342 19.2734 88.3887 19.1035 88.6348 18.8809C88.8809 18.6641 89.0039 18.4033 89.0039 18.0986C89.0039 17.8525 88.9307 17.6562 88.7842 17.5098C88.6436 17.3691 88.4268 17.2695 88.1338 17.2109C87.8467 17.1523 87.4775 17.123 87.0264 17.123H85.6377C85.3096 17.123 85.0137 17.1758 84.75 17.2812C84.4922 17.3867 84.2871 17.5332 84.1348 17.7207C83.9824 17.9141 83.9062 18.1367 83.9062 18.3887C83.9062 18.7578 84.082 19.0479 84.4336 19.2588C84.791 19.4697 85.2891 19.5752 85.9277 19.5752ZM86.3584 12.1221C86.8623 12.1221 87.2314 11.9668 87.4658 11.6562C87.7002 11.3457 87.8174 10.9238 87.8174 10.3906C87.8174 9.79883 87.6943 9.35645 87.4482 9.06348C87.208 8.76465 86.8447 8.61523 86.3584 8.61523C85.8662 8.61523 85.4971 8.76465 85.251 9.06348C85.0049 9.35645 84.8818 9.79883 84.8818 10.3906C84.8818 10.9238 85.002 11.3457 85.2422 11.6562C85.4883 11.9668 85.8604 12.1221 86.3584 12.1221ZM102.047 12.0693C102.047 12.8896 101.936 13.6162 101.713 14.249C101.496 14.8818 101.177 15.418 100.755 15.8574C100.339 16.291 99.835 16.6191 99.2432 16.8418C98.6572 17.0645 97.9951 17.1758 97.2568 17.1758C96.5654 17.1758 95.9297 17.0645 95.3496 16.8418C94.7754 16.6191 94.2744 16.291 93.8467 15.8574C93.4248 15.418 93.0967 14.8818 92.8623 14.249C92.6338 13.6162 92.5195 12.8896 92.5195 12.0693C92.5195 10.9795 92.7129 10.0566 93.0996 9.30078C93.4863 8.54492 94.0371 7.9707 94.752 7.57812C95.4668 7.18555 96.3193 6.98926 97.3096 6.98926C98.2295 6.98926 99.0439 7.18555 99.7529 7.57812C100.468 7.9707 101.027 8.54492 101.432 9.30078C101.842 10.0566 102.047 10.9795 102.047 12.0693ZM95.2529 12.0693C95.2529 12.7139 95.3232 13.2559 95.4639 13.6953C95.6045 14.1348 95.8242 14.4658 96.123 14.6885C96.4219 14.9111 96.8115 15.0225 97.292 15.0225C97.7666 15.0225 98.1504 14.9111 98.4434 14.6885C98.7422 14.4658 98.959 14.1348 99.0938 13.6953C99.2344 13.2559 99.3047 12.7139 99.3047 12.0693C99.3047 11.4189 99.2344 10.8799 99.0938 10.4521C98.959 10.0186 98.7422 9.69336 98.4434 9.47656C98.1445 9.25977 97.7549 9.15137 97.2744 9.15137C96.5654 9.15137 96.0498 9.39453 95.7275 9.88086C95.4111 10.3672 95.2529 11.0967 95.2529 12.0693Z" fill="#ED3237"/>
<path d="M108.577 4.15039C110.235 4.15039 111.445 4.50781 112.207 5.22266C112.969 5.93164 113.35 6.91016 113.35 8.1582C113.35 8.7207 113.265 9.25977 113.095 9.77539C112.925 10.2852 112.646 10.7393 112.26 11.1377C111.879 11.5361 111.369 11.8525 110.73 12.0869C110.092 12.3154 109.304 12.4297 108.366 12.4297H107.197V17H104.473V4.15039H108.577ZM108.437 6.38281H107.197V10.1973H108.094C108.604 10.1973 109.046 10.1299 109.421 9.99512C109.796 9.86035 110.086 9.64941 110.291 9.3623C110.496 9.0752 110.599 8.70605 110.599 8.25488C110.599 7.62207 110.423 7.15332 110.071 6.84863C109.72 6.53809 109.175 6.38281 108.437 6.38281ZM121.049 6.98926C121.184 6.98926 121.339 6.99805 121.515 7.01562C121.696 7.02734 121.843 7.04492 121.954 7.06836L121.752 9.58203C121.664 9.55273 121.538 9.53223 121.374 9.52051C121.216 9.50293 121.078 9.49414 120.961 9.49414C120.615 9.49414 120.278 9.53809 119.95 9.62598C119.628 9.71387 119.338 9.85742 119.08 10.0566C118.822 10.25 118.617 10.5078 118.465 10.8301C118.318 11.1465 118.245 11.5361 118.245 11.999V17H115.564V7.17383H117.595L117.99 8.82617H118.122C118.315 8.49219 118.556 8.1875 118.843 7.91211C119.136 7.63086 119.467 7.4082 119.836 7.24414C120.211 7.07422 120.615 6.98926 121.049 6.98926ZM126.419 7.17383V17H123.738V7.17383H126.419ZM125.083 3.32422C125.481 3.32422 125.824 3.41797 126.111 3.60547C126.398 3.78711 126.542 4.12988 126.542 4.63379C126.542 5.13184 126.398 5.47754 126.111 5.6709C125.824 5.8584 125.481 5.95215 125.083 5.95215C124.679 5.95215 124.333 5.8584 124.046 5.6709C123.765 5.47754 123.624 5.13184 123.624 4.63379C123.624 4.12988 123.765 3.78711 124.046 3.60547C124.333 3.41797 124.679 3.32422 125.083 3.32422ZM140.78 6.98926C141.894 6.98926 142.734 7.27637 143.303 7.85059C143.877 8.41895 144.164 9.33301 144.164 10.5928V17H141.475V11.2607C141.475 10.5576 141.354 10.0273 141.114 9.66992C140.874 9.3125 140.502 9.13379 139.998 9.13379C139.289 9.13379 138.785 9.38867 138.486 9.89844C138.188 10.4023 138.038 11.126 138.038 12.0693V17H135.357V11.2607C135.357 10.792 135.305 10.3994 135.199 10.083C135.094 9.7666 134.933 9.5293 134.716 9.37109C134.499 9.21289 134.221 9.13379 133.881 9.13379C133.383 9.13379 132.99 9.25977 132.703 9.51172C132.422 9.75781 132.22 10.124 132.097 10.6104C131.979 11.0908 131.921 11.6797 131.921 12.377V17H129.24V7.17383H131.288L131.648 8.43066H131.798C131.997 8.09082 132.246 7.81543 132.545 7.60449C132.85 7.39355 133.184 7.23828 133.547 7.13867C133.91 7.03906 134.279 6.98926 134.654 6.98926C135.375 6.98926 135.984 7.10645 136.482 7.34082C136.986 7.5752 137.373 7.93848 137.643 8.43066H137.88C138.173 7.92676 138.586 7.56055 139.119 7.33203C139.658 7.10352 140.212 6.98926 140.78 6.98926ZM150.976 6.98926C151.884 6.98926 152.666 7.16504 153.322 7.5166C153.979 7.8623 154.485 8.36621 154.843 9.02832C155.2 9.69043 155.379 10.499 155.379 11.4541V12.7549H149.042C149.071 13.5107 149.297 14.1055 149.719 14.5391C150.146 14.9668 150.738 15.1807 151.494 15.1807C152.121 15.1807 152.695 15.1162 153.217 14.9873C153.738 14.8584 154.274 14.665 154.825 14.4072V16.4814C154.339 16.7217 153.829 16.8975 153.296 17.0088C152.769 17.1201 152.127 17.1758 151.371 17.1758C150.387 17.1758 149.514 16.9941 148.752 16.6309C147.996 16.2676 147.401 15.7139 146.968 14.9697C146.54 14.2256 146.326 13.2881 146.326 12.1572C146.326 11.0088 146.52 10.0537 146.906 9.29199C147.299 8.52441 147.844 7.9502 148.541 7.56934C149.238 7.18262 150.05 6.98926 150.976 6.98926ZM150.993 8.89648C150.472 8.89648 150.038 9.06348 149.692 9.39746C149.353 9.73145 149.156 10.2559 149.104 10.9707H152.865C152.859 10.5723 152.786 10.2178 152.646 9.90723C152.511 9.59668 152.306 9.35059 152.03 9.16895C151.761 8.9873 151.415 8.89648 150.993 8.89648Z" fill="#2074B9"/>
</svg>
