<svg width="24" height="24" viewBox="0 0 24 24" fill="none" xmlns="http://www.w3.org/2000/svg">
<path fill-rule="evenodd" clip-rule="evenodd" d="M15.0002 4V6H8.0002C7.44795 6 7.0002 6.44775 7.0002 7V7.75H8.06172C8.24678 7.75 8.33272 7.97998 8.19258 8.10107L6.13105 9.88672C6.05586 9.95166 5.94453 9.95166 5.86934 9.88672L3.80781 8.10107C3.66768 7.97998 3.75361 7.75 3.93867 7.75H5.0002V7C5.0002 5.34326 6.34346 4 8.0002 4H15.0002ZM10.0002 19H17.0002C18.6569 19 20.0002 17.6567 20.0002 16V15.25H21.0617C21.2468 15.25 21.3327 15.02 21.1926 14.8989L19.1311 13.1133C19.0559 13.0483 18.9445 13.0483 18.8693 13.1133L16.8078 14.8989C16.6677 15.02 16.7536 15.25 16.9387 15.25H18.0002V16C18.0002 16.3315 17.8391 16.625 17.5905 16.8071C17.425 16.9282 17.2209 17 17.0002 17H10.0002V19Z" fill="#5C6470"/>
<path d="M3.33301 18.333C3.33301 17.6258 3.61396 16.9475 4.11406 16.4474C4.61415 15.9473 5.29243 15.6663 5.99967 15.6663C6.70692 15.6663 7.3852 15.9473 7.88529 16.4474C8.38539 16.9475 8.66634 17.6258 8.66634 18.333H3.33301ZM5.99967 15.333C4.89467 15.333 3.99967 14.438 3.99967 13.333C3.99967 12.228 4.89467 11.333 5.99967 11.333C7.10467 11.333 7.99967 12.228 7.99967 13.333C7.99967 14.438 7.10467 15.333 5.99967 15.333Z" fill="#5C6470"/>
<path d="M16.333 11.333C16.333 10.6258 16.614 9.94749 17.1141 9.44739C17.6142 8.94729 18.2924 8.66634 18.9997 8.66634C19.7069 8.66634 20.3852 8.94729 20.8853 9.44739C21.3854 9.94749 21.6663 10.6258 21.6663 11.333H16.333ZM18.9997 8.33301C17.8947 8.33301 16.9997 7.43801 16.9997 6.33301C16.9997 5.22801 17.8947 4.33301 18.9997 4.33301C20.1047 4.33301 20.9997 5.22801 20.9997 6.33301C20.9997 7.43801 20.1047 8.33301 18.9997 8.33301Z" fill="#5C6470"/>
</svg>
