<svg width="20" height="20" viewBox="0 0 20 20" fill="none" xmlns="http://www.w3.org/2000/svg">
<path d="M19.0715 14.5889L12.9322 8.45001L13.7529 5.38732C13.8134 5.16133 13.7488 4.92014 13.5834 4.75467L9.02055 0.191849C8.85507 0.0263718 8.61397 -0.0382475 8.38789 0.0223549L4.9601 0.940821C4.73411 1.00142 4.55763 1.1779 4.49703 1.4039C4.43651 1.62989 4.50104 1.87108 4.66652 2.03655L8.09474 5.46504L7.53902 7.53949L5.465 8.09513L2.03643 4.66682C1.87095 4.50143 1.62994 4.43672 1.40377 4.49741C1.17778 4.55793 1.00121 4.73449 0.940697 4.96049L0.0223181 8.38819C-0.0381969 8.61418 0.026335 8.85528 0.191813 9.02076L4.75437 13.5838C4.91984 13.7493 5.16103 13.8139 5.38702 13.7533L8.44998 12.9325L14.589 19.0718C15.1875 19.6704 15.9834 19.9999 16.8299 20H16.83C17.6766 20 18.4725 19.6703 19.0711 19.0717C20.307 17.836 20.3073 15.8252 19.0715 14.5889ZM18.1449 18.1453C17.7937 18.4967 17.3266 18.6901 16.83 18.6901C16.8299 18.6901 16.8299 18.6901 16.8298 18.6901C16.3331 18.6901 15.8662 18.4967 15.515 18.1456L9.10874 11.739C8.98431 11.6145 8.81708 11.5471 8.64558 11.5471C8.58908 11.5471 8.53215 11.5544 8.47608 11.5694L5.41313 12.3902L1.38535 8.3619L1.91234 6.39512L4.80615 9.28875C4.97163 9.45414 5.21255 9.51885 5.43872 9.45825L8.24319 8.70692C8.46919 8.6464 8.64575 8.46983 8.70636 8.24375L9.45786 5.43884C9.51838 5.21285 9.45384 4.97166 9.28837 4.80627L6.39482 1.91247L8.36169 1.38538L12.3897 5.41352L11.5691 8.47621C11.5085 8.7022 11.5731 8.94339 11.7386 9.10887L18.145 15.515C18.8703 16.2404 18.8702 17.4203 18.1449 18.1453Z" fill="#1893FF"/>
</svg>
