<svg width="24" height="24" viewBox="0 0 24 24" fill="none" xmlns="http://www.w3.org/2000/svg">
<path d="M5.33383 3.27185C5.95788 3.04922 6.6323 3.0083 7.27868 3.15385C7.92507 3.2994 8.51687 3.62543 8.98527 4.09404C9.45367 4.56265 9.77944 5.15459 9.9247 5.80104C10.07 6.4475 10.0287 7.1219 9.80583 7.74585L20.6508 18.5908L18.5288 20.7118L7.68383 9.86785C7.05978 10.0905 6.38536 10.1314 5.73897 9.98585C5.09258 9.8403 4.50079 9.51427 4.03239 9.04566C3.56398 8.57704 3.23822 7.9851 3.09296 7.33865C2.9477 6.6922 2.98892 6.0178 3.21183 5.39385L5.44783 7.63085C5.5862 7.77411 5.75171 7.88839 5.93472 7.967C6.11773 8.04561 6.31456 8.08699 6.51373 8.08872C6.71289 8.09045 6.91041 8.0525 7.09476 7.97708C7.2791 7.90166 7.44658 7.79028 7.58742 7.64944C7.72826 7.5086 7.83964 7.34112 7.91506 7.15678C7.99048 6.97243 8.02843 6.77492 8.0267 6.57575C8.02497 6.37658 7.98359 6.17975 7.90498 5.99674C7.82637 5.81374 7.71209 5.64822 7.56883 5.50985L5.33283 3.27085L5.33383 3.27185ZM15.7008 5.15585L18.8828 3.38785L20.2968 4.80185L18.5288 7.98385L16.7608 8.33785L14.6408 10.4588L13.2258 9.04485L15.3468 6.92385L15.7008 5.15585ZM8.62983 12.9338L10.7508 15.0558L5.80083 20.0058C5.52786 20.2763 5.16154 20.4316 4.77741 20.4399C4.39327 20.4481 4.02061 20.3087 3.73628 20.0502C3.45195 19.7918 3.27762 19.4341 3.24926 19.051C3.22089 18.6678 3.34065 18.2883 3.58383 17.9908L3.68083 17.8838L8.63083 12.9338H8.62983Z" fill="#5C6470"/>
</svg>
