<svg width="11" height="11" viewBox="0 0 11 11" fill="none" xmlns="http://www.w3.org/2000/svg">
<path d="M3.28299 0.065714C2.78612 -0.0461635 2.2677 -0.0147105 1.78799 0.156416L3.50603 1.87671C3.61615 1.98307 3.704 2.1103 3.76443 2.25097C3.82485 2.39164 3.85666 2.54294 3.85799 2.69604C3.85932 2.84913 3.83015 3.00096 3.77217 3.14266C3.7142 3.28436 3.62858 3.4131 3.52032 3.52136C3.41206 3.62962 3.28332 3.71523 3.14161 3.77321C2.99991 3.83118 2.84808 3.86035 2.69498 3.85902C2.54188 3.85769 2.39057 3.82588 2.2499 3.76546C2.10922 3.70503 1.98199 3.61719 1.87563 3.50707L0.156825 1.78754C-0.0145209 2.26715 -0.0462065 2.78555 0.0654518 3.28246C0.17711 3.77937 0.427525 4.23438 0.787584 4.59459C1.14764 4.9548 1.60255 5.20541 2.09943 5.31729C2.5963 5.42917 3.11472 5.39772 3.59443 5.22659L9.2185 10.8497L10.8497 9.21931L5.2256 3.59546C5.39694 3.11585 5.42863 2.59745 5.31697 2.10054C5.20531 1.60363 4.9549 1.14862 4.59484 0.788414C4.23478 0.428204 3.77987 0.177591 3.28299 0.065714Z" fill="#00B533"/>
</svg>
