<svg width="16" height="16" viewBox="0 0 16 16" fill="none" xmlns="http://www.w3.org/2000/svg">
<path d="M11.7125 7.96255C12.3478 7.32776 12.8096 6.54052 13.0536 5.67619C13.2976 4.81185 13.3156 3.89936 13.106 3.02605L14.9772 2.22355C15.0343 2.19909 15.0966 2.18918 15.1584 2.19471C15.2202 2.20024 15.2797 2.22104 15.3316 2.25523C15.3834 2.28943 15.4259 2.33596 15.4553 2.39065C15.4847 2.44533 15.5001 2.50646 15.5 2.56855V13.2501L10.25 15.5001L5.75 13.2501L1.02275 15.2758C0.965685 15.3003 0.90344 15.3102 0.841599 15.3046C0.779759 15.2991 0.720259 15.2783 0.66844 15.2441C0.616621 15.2099 0.574104 15.1634 0.544705 15.1087C0.515306 15.054 0.499945 14.9929 0.5 14.9308V4.25005L2.84675 3.2443C2.68163 4.08849 2.72668 4.96032 2.97793 5.78299C3.22918 6.60566 3.67891 7.35391 4.2875 7.9618L8 11.675L11.7125 7.96255ZM10.652 6.90205L8 9.55255L5.348 6.9013C4.82365 6.37681 4.4666 5.70863 4.32198 4.98122C4.17737 4.25382 4.25169 3.49987 4.53555 2.81471C4.8194 2.12954 5.30005 1.54393 5.91671 1.13192C6.53338 0.719909 7.25836 0.5 8 0.5C8.74164 0.5 9.46662 0.719909 10.0833 1.13192C10.6999 1.54393 11.1806 2.12954 11.4645 2.81471C11.7483 3.49987 11.8226 4.25382 11.678 4.98122C11.5334 5.70863 11.1763 6.37681 10.652 6.9013V6.90205Z" fill="white"/>
</svg>
