<svg width="24" height="24" viewBox="0 0 24 24" fill="none" xmlns="http://www.w3.org/2000/svg">
<path fill-rule="evenodd" clip-rule="evenodd" d="M16 15.5844L18.2472 16.9998L16 18.4152L16 15.5844ZM13.75 13.9998V13.2529C13.75 12.6234 14.4436 12.2405 14.9763 12.576L20.9252 16.3229C21.4234 16.6366 21.4234 17.3629 20.9252 17.6767L14.9764 21.4235C14.4436 21.7591 13.75 21.3762 13.75 20.7466V19.9998L5.8 19.9998C5.35817 19.9998 5 19.6416 5 19.1998V14.7998C5 14.3579 5.35817 13.9998 5.8 13.9998L13.75 13.9998ZM13.75 15.9998L7 15.9998L7 17.9998L13.75 17.9998L13.75 15.9998Z" fill="#5C6470"/>
<path fill-rule="evenodd" clip-rule="evenodd" d="M8.00006 8.41516L5.75284 6.99978L8.00006 5.58439L8.00006 8.41516ZM10.2501 9.99978V10.7466C10.2501 11.3762 9.55645 11.7591 9.02371 11.4235L3.07482 7.6767C2.57662 7.36292 2.57662 6.63664 3.07482 6.32285L9.02371 2.57602C9.55645 2.24049 10.2501 2.62335 10.2501 3.25295V3.99978L18.2001 3.99977C18.6419 3.99977 19.0001 4.35795 19.0001 4.79977L19.0001 9.19978C19.0001 9.6416 18.6419 9.99978 18.2001 9.99978L10.2501 9.99978ZM10.2501 7.99978L17.0001 7.99978L17.0001 5.99977L10.2501 5.99978L10.2501 7.99978Z" fill="#5C6470"/>
</svg>
