<svg width="14" height="14" viewBox="0 0 14 14" fill="none" xmlns="http://www.w3.org/2000/svg">
<path d="M7.00016 13.6666C3.31816 13.6666 0.333496 10.6819 0.333496 6.99992C0.333496 3.31792 3.31816 0.333252 7.00016 0.333252C10.6822 0.333252 13.6668 3.31792 13.6668 6.99992C13.6668 10.6819 10.6822 13.6666 7.00016 13.6666ZM5.4735 12.1113C4.81577 10.7161 4.43474 9.20673 4.3515 7.66659H1.70816C1.83789 8.69252 2.26278 9.65869 2.93121 10.4477C3.59964 11.2368 4.48284 11.8147 5.4735 12.1113ZM5.68683 7.66659C5.7875 9.29259 6.25216 10.8199 7.00016 12.1679C7.76838 10.7843 8.21713 9.24624 8.3135 7.66659H5.68683ZM12.2922 7.66659H9.64883C9.56558 9.20673 9.18455 10.7161 8.52683 12.1113C9.51749 11.8147 10.4007 11.2368 11.0691 10.4477C11.7375 9.65869 12.1624 8.69252 12.2922 7.66659ZM1.70816 6.33325H4.3515C4.43474 4.79311 4.81577 3.28371 5.4735 1.88859C4.48284 2.18517 3.59964 2.76309 2.93121 3.55212C2.26278 4.34114 1.83789 5.30732 1.70816 6.33325ZM5.6875 6.33325H8.31283C8.21666 4.75365 7.76814 3.21561 7.00016 1.83192C6.23195 3.21555 5.7832 4.7536 5.68683 6.33325H5.6875ZM8.52683 1.88859C9.18455 3.28371 9.56558 4.79311 9.64883 6.33325H12.2922C12.1624 5.30732 11.7375 4.34114 11.0691 3.55212C10.4007 2.76309 9.51749 2.18517 8.52683 1.88859Z" fill="#5C6470"/>
</svg>
