<svg width="18" height="16" viewBox="0 0 18 16" fill="none" xmlns="http://www.w3.org/2000/svg">
<g clip-path="url(#clip0_7293_234)">
<path d="M0 9.81055H3.28314C3.39909 10.2944 3.48405 10.7546 3.62347 11.1988C3.88541 12.0325 4.33793 12.7539 4.93269 13.3795C5.09746 13.5533 5.17679 13.7507 5.08948 13.9868C5.0541 14.0758 5.00174 14.1566 4.93551 14.2244C4.43041 14.7521 3.92155 15.2774 3.40895 15.8003C3.14372 16.0718 2.84188 16.0645 2.57854 15.7877C1.20939 14.3455 0.37632 12.6271 0.0793324 10.6326C0.0469422 10.4318 0.0262877 10.2296 0 10.0278V9.81055Z" fill="#1893FF"/>
<path d="M0 8.50688C0.0586778 8.12753 0.103273 7.74528 0.178381 7.36883C0.493363 5.78901 1.17356 4.39451 2.20065 3.1771C2.21754 3.15479 2.23321 3.13153 2.24759 3.10742L4.60034 5.54078C3.87526 6.44629 3.43105 7.55558 3.32539 8.72462H0V8.50688Z" fill="#1893FF"/>
<path d="M10.6466 9.03708C10.6626 10.2066 9.93402 10.9813 8.99752 10.9822C8.06102 10.9832 7.29774 10.2047 7.35454 9.22966C7.40549 8.49064 7.50144 7.75565 7.64183 7.02904C7.89766 5.62583 8.18964 4.23084 8.46848 2.83295C8.53326 2.50925 8.72619 2.33651 9.00456 2.33989C9.27495 2.34376 9.46319 2.51505 9.52468 2.83053C9.84905 4.50181 10.1767 6.17211 10.4893 7.8458C10.5738 8.30015 10.61 8.76418 10.6466 9.03708Z" fill="#1893FF"/>
<path d="M14.6668 9.82227H18.003C17.9612 10.1682 17.9349 10.5084 17.8781 10.8432C17.5589 12.7377 16.7485 14.3751 15.4469 15.7554C15.1451 16.0762 14.8583 16.0811 14.555 15.769C14.0625 15.2619 13.5702 14.7545 13.0782 14.2467C12.8013 13.9603 12.7966 13.6661 13.066 13.3758C13.9917 12.3868 14.5227 11.2085 14.6668 9.82227Z" fill="#1893FF"/>
<path d="M17.9833 8.71621H14.6659C14.5448 7.52154 14.1218 6.46187 13.3984 5.55027L15.739 3.13965C16.7694 3.94625 17.98 6.92687 17.9833 8.71621Z" fill="#1893FF"/>
<path d="M14.9611 2.31191L12.6351 4.70898C12.252 4.47092 11.8666 4.22125 11.4709 3.99093C11.295 3.89537 11.1112 3.81618 10.9217 3.75432C10.8773 3.74195 10.8376 3.71608 10.8077 3.68009C10.7778 3.64409 10.7591 3.59964 10.7541 3.55254C10.6889 3.21384 10.617 2.88045 10.5438 2.54514C10.426 2.01288 10.1284 1.62579 9.64627 1.38773C9.59933 1.36353 9.53032 1.30547 9.52939 1.26192C9.52047 0.847249 9.52422 0.432092 9.52422 0C11.6042 0.14516 13.4082 0.915958 14.9611 2.31191Z" fill="#1893FF"/>
<path d="M3.03125 2.31627C4.578 0.919345 6.3848 0.149515 8.47186 0V0.77854C8.47045 0.802712 8.47045 0.826949 8.47186 0.85112C8.50753 1.15402 8.45871 1.37079 8.13669 1.52853C7.75129 1.71627 7.54803 2.1024 7.45368 2.53352C7.37904 2.87223 7.31285 3.21771 7.23399 3.5569C7.22468 3.59475 7.20786 3.6302 7.18459 3.66101C7.16132 3.69183 7.13211 3.71734 7.09879 3.73593C6.49282 3.96326 5.92728 4.29184 5.42483 4.7085C5.41014 4.71973 5.39442 4.72945 5.37789 4.73753L3.03125 2.31627Z" fill="#1893FF"/>
</g>
<defs>
<clipPath id="clip0_7293_234">
<rect width="18" height="16" fill="white"/>
</clipPath>
</defs>
</svg>
