<svg width="20" height="20" viewBox="0 0 20 20" fill="none" xmlns="http://www.w3.org/2000/svg">
<g clip-path="url(#clip0_10278_956)">
<path d="M7.85 7.77713C7.75048 7.46337 7.56872 7.18989 7.32814 6.99187C7.08755 6.79385 6.79913 6.68037 6.5 6.66602H4.5C4.10218 6.66602 3.72064 6.84161 3.43934 7.15417C3.15804 7.46673 3 7.89065 3 8.33268C3 8.77471 3.15804 9.19863 3.43934 9.51119C3.72064 9.82375 4.10218 9.99935 4.5 9.99935H6.5C6.89782 9.99935 7.27936 10.1749 7.56066 10.4875C7.84196 10.8001 8 11.224 8 11.666C8 12.108 7.84196 12.532 7.56066 12.8445C7.27936 13.1571 6.89782 13.3327 6.5 13.3327H4.5C4.20087 13.3183 3.91245 13.2048 3.67186 13.0068C3.43128 12.8088 3.24952 12.5353 3.15 12.2216" stroke="black" stroke-width="1.5" stroke-linecap="round" stroke-linejoin="round"/>
<path d="M5.5 5V6.66667M5.5 13.3333V15" stroke="black" stroke-width="1.5" stroke-linecap="round" stroke-linejoin="round"/>
<path d="M15.7891 8.87891L11.5464 13.1215" stroke="black" stroke-width="1.5" stroke-linecap="round" stroke-linejoin="round"/>
<path d="M15.7891 11.7073V8.87891" stroke="black" stroke-width="1.5" stroke-linecap="round" stroke-linejoin="round"/>
<path d="M12.9608 8.87906H15.7892" stroke="black" stroke-width="1.5" stroke-linecap="round" stroke-linejoin="round"/>
</g>
<defs>
<clipPath id="clip0_10278_956">
<rect width="20" height="20" fill="white"/>
</clipPath>
</defs>
</svg>
