<svg width="20" height="20" viewBox="0 0 20 20" fill="none" xmlns="http://www.w3.org/2000/svg">
<g clip-path="url(#clip0_10390_1356)">
<path d="M16.1441 10.3468L7.31156 16.2351C7.24882 16.2769 7.17592 16.3008 7.10064 16.3044C7.02536 16.308 6.95051 16.2911 6.88406 16.2555C6.81762 16.22 6.76207 16.167 6.72332 16.1024C6.68458 16.0377 6.6641 15.9638 6.66406 15.8884V4.11176C6.6641 4.0364 6.68458 3.96245 6.72332 3.8978C6.76207 3.83315 6.81762 3.78022 6.88406 3.74465C6.95051 3.70907 7.02536 3.69219 7.10064 3.69579C7.17592 3.69939 7.24882 3.72334 7.31156 3.7651L16.1441 9.65343C16.2011 9.69148 16.2479 9.74303 16.2803 9.80351C16.3126 9.86398 16.3296 9.93151 16.3296 10.0001C16.3296 10.0687 16.3126 10.1362 16.2803 10.1967C16.2479 10.2572 16.2011 10.3087 16.1441 10.3468Z" fill="white"/>
</g>
<defs>
<clipPath id="clip0_10390_1356">
<rect width="20" height="20" fill="white"/>
</clipPath>
</defs>
</svg>
