<svg width="14" height="14" viewBox="0 0 14 14" fill="none" xmlns="http://www.w3.org/2000/svg">
<path d="M12.4444 12.5261V5.7455L7 1.6761L1.55556 5.7455V12.5261H12.4444ZM14 13.2631C14 13.4585 13.9181 13.646 13.7722 13.7842C13.6263 13.9224 13.4285 14 13.2222 14H0.777778C0.571498 14 0.373667 13.9224 0.227806 13.7842C0.0819442 13.646 6.1651e-08 13.4585 6.1651e-08 13.2631V5.38808C-4.67117e-05 5.27677 0.0265215 5.16689 0.0777103 5.0667C0.128899 4.9665 0.203378 4.8786 0.295556 4.80958L6.51778 0.158736C6.65509 0.0559259 6.82499 0 7 0C7.17501 0 7.34491 0.0559259 7.48222 0.158736L13.7044 4.80885C13.7967 4.87794 13.8713 4.96596 13.9225 5.06629C13.9737 5.16662 14.0002 5.27664 14 5.38808V13.2631ZM3.11111 7.36751H4.66667C4.66667 7.95386 4.9125 8.51619 5.35008 8.93081C5.78767 9.34542 6.38116 9.57834 7 9.57834C7.61884 9.57834 8.21233 9.34542 8.64991 8.93081C9.0875 8.51619 9.33333 7.95386 9.33333 7.36751H10.8889C10.8889 8.34476 10.4792 9.28198 9.74986 9.973C9.02055 10.664 8.0314 11.0522 7 11.0522C5.9686 11.0522 4.97945 10.664 4.25014 9.973C3.52083 9.28198 3.11111 8.34476 3.11111 7.36751Z" fill="#00B533"/>
</svg>
