<svg width="24" height="30" viewBox="0 0 24 30" fill="none" xmlns="http://www.w3.org/2000/svg">
<path d="M12 0.333008L22.956 2.76767C23.5653 2.90367 24 3.44367 24 4.06901V17.385C24 20.0597 22.6627 22.5583 20.4373 24.041L12 29.6663L3.56267 24.041C1.336 22.557 0 20.0597 0 17.3863V4.06901C0 3.44367 0.434667 2.90367 1.044 2.76767L12 0.333008ZM12 3.06501L2.66667 5.13834V17.385C2.66667 19.1677 3.55733 20.833 5.04133 21.8223L12 26.4623L18.9587 21.8223C20.4427 20.833 21.3333 19.169 21.3333 17.3863V5.13834L12 3.06634V3.06501ZM17.936 9.96234L19.8227 11.8477L11.3373 20.333L5.68 14.6757L7.56533 12.7903L11.336 16.561L17.936 9.96101V9.96234Z" fill="#00B238" fill-opacity="0.8"/>
</svg>
