<svg width="14" height="14" viewBox="0 0 14 14" fill="none" xmlns="http://www.w3.org/2000/svg">
<path d="M11.358 12.0446C10.1483 13.0928 8.60066 13.6688 6.99998 13.6666C3.31798 13.6666 0.333313 10.6819 0.333313 6.99992C0.333313 3.31792 3.31798 0.333252 6.99998 0.333252C10.682 0.333252 13.6666 3.31792 13.6666 6.99992C13.6666 8.42392 13.22 9.74392 12.46 10.8266L10.3333 6.99992H12.3333C12.3332 5.77072 11.9085 4.57929 11.1311 3.62718C10.3537 2.67506 9.27122 2.02071 8.06687 1.77482C6.86252 1.52893 5.6102 1.7066 4.52176 2.27776C3.43333 2.84893 2.57559 3.77853 2.09366 4.90931C1.61173 6.04009 1.53518 7.30262 1.87697 8.48335C2.21876 9.66407 2.95791 10.6905 3.96937 11.389C4.98083 12.0874 6.20251 12.4151 7.42774 12.3165C8.65298 12.2179 9.80655 11.6991 10.6933 10.8479L11.358 12.0446Z" fill="#1893FF"/>
</svg>
