<svg width="18" height="18" viewBox="0 0 18 18" fill="none" xmlns="http://www.w3.org/2000/svg">
<path d="M3.55258 2.6942C5.06471 1.38391 6.99924 0.663904 9.00008 0.666695C13.6026 0.666695 17.3334 4.39753 17.3334 9.00003C17.3334 10.78 16.7751 12.43 15.8251 13.7834L13.1667 9.00003H15.6667C15.6669 7.69305 15.2828 6.41487 14.5623 5.32441C13.8418 4.23395 12.8167 3.37933 11.6144 2.8668C10.4121 2.35427 9.08568 2.20645 7.80005 2.44171C6.51441 2.67697 5.32629 3.28494 4.38341 4.19003L3.55258 2.6942ZM14.4476 15.3059C12.9354 16.6161 11.0009 17.3362 9.00008 17.3334C4.39758 17.3334 0.666748 13.6025 0.666748 9.00003C0.666748 7.22003 1.22508 5.57003 2.17508 4.2167L4.83342 9.00003H2.33341C2.33331 10.307 2.71737 11.5852 3.43786 12.6756C4.15835 13.7661 5.18347 14.6207 6.38577 15.1333C7.58806 15.6458 8.91449 15.7936 10.2001 15.5583C11.4857 15.3231 12.6739 14.7151 13.6167 13.81L14.4476 15.3059Z" fill="white"/>
</svg>
