<svg width="4" height="16" viewBox="0 0 4 16" fill="none" xmlns="http://www.w3.org/2000/svg">
<path d="M2.62305 10.6445H0.894531L0.425781 0.722656H3.0918L2.62305 10.6445ZM0.308594 13.7891C0.308594 13.2552 0.445312 12.8809 0.71875 12.666C0.998698 12.4447 1.34049 12.334 1.74414 12.334C2.14128 12.334 2.47982 12.4447 2.75977 12.666C3.03971 12.8809 3.17969 13.2552 3.17969 13.7891C3.17969 14.3099 3.03971 14.6875 2.75977 14.9219C2.47982 15.1497 2.14128 15.2637 1.74414 15.2637C1.34049 15.2637 0.998698 15.1497 0.71875 14.9219C0.445312 14.6875 0.308594 14.3099 0.308594 13.7891Z" fill="#5C6470"/>
</svg>
