<svg width="16" height="16" viewBox="0 0 16 16" fill="none" xmlns="http://www.w3.org/2000/svg">
<path d="M8 0.5C6.07729 0.505484 4.23012 1.24919 2.84 2.5775V1.25C2.84 1.05109 2.76098 0.860322 2.62033 0.71967C2.47968 0.579018 2.28891 0.5 2.09 0.5C1.89109 0.5 1.70032 0.579018 1.55967 0.71967C1.41902 0.860322 1.34 1.05109 1.34 1.25V4.625C1.34 4.82391 1.41902 5.01468 1.55967 5.15533C1.70032 5.29598 1.89109 5.375 2.09 5.375H5.465C5.66391 5.375 5.85468 5.29598 5.99533 5.15533C6.13598 5.01468 6.215 4.82391 6.215 4.625C6.215 4.42609 6.13598 4.23532 5.99533 4.09467C5.85468 3.95402 5.66391 3.875 5.465 3.875H3.665C4.62933 2.86727 5.91463 2.22699 7.2999 2.06425C8.68517 1.90151 10.0839 2.22648 11.2555 2.98328C12.4271 3.74009 13.2985 4.88143 13.7197 6.21109C14.141 7.54075 14.0859 8.97564 13.5638 10.269C13.0417 11.5625 12.0854 12.6336 10.8591 13.2982C9.63287 13.9629 8.21337 14.1796 6.84467 13.911C5.47597 13.6424 4.2436 12.9054 3.35944 11.8266C2.47529 10.7479 1.99459 9.39479 2 8C2 7.80109 1.92098 7.61032 1.78033 7.46967C1.63968 7.32902 1.44891 7.25 1.25 7.25C1.05109 7.25 0.860322 7.32902 0.71967 7.46967C0.579018 7.61032 0.5 7.80109 0.5 8C0.5 9.48336 0.939867 10.9334 1.76398 12.1668C2.58809 13.4001 3.75943 14.3614 5.12987 14.9291C6.50032 15.4968 8.00832 15.6453 9.46318 15.3559C10.918 15.0665 12.2544 14.3522 13.3033 13.3033C14.3522 12.2544 15.0665 10.918 15.3559 9.46318C15.6453 8.00832 15.4968 6.50032 14.9291 5.12987C14.3614 3.75943 13.4001 2.58809 12.1668 1.76398C10.9334 0.939867 9.48336 0.5 8 0.5ZM8 5C7.80109 5 7.61032 5.07902 7.46967 5.21967C7.32902 5.36032 7.25 5.55109 7.25 5.75V8C7.25 8.19891 7.32902 8.38968 7.46967 8.53033C7.61032 8.67098 7.80109 8.75 8 8.75H9.5C9.69891 8.75 9.88968 8.67098 10.0303 8.53033C10.171 8.38968 10.25 8.19891 10.25 8C10.25 7.80109 10.171 7.61032 10.0303 7.46967C9.88968 7.32902 9.69891 7.25 9.5 7.25H8.75V5.75C8.75 5.55109 8.67098 5.36032 8.53033 5.21967C8.38968 5.07902 8.19891 5 8 5Z" fill="#1893FF"/>
</svg>
