<svg width="10" height="13" viewBox="0 0 10 13" fill="none" xmlns="http://www.w3.org/2000/svg">
<path d="M7.33333 5.33606H2C1.46957 5.33606 0.960859 5.54677 0.585787 5.92185C0.210714 6.29692 0 6.80563 0 7.33606V10.6694C0 11.1998 0.210714 11.7085 0.585787 12.0836C0.960859 12.4587 1.46957 12.6694 2 12.6694H7.33333C7.86377 12.6694 8.37247 12.4587 8.74755 12.0836C9.12262 11.7085 9.33333 11.1998 9.33333 10.6694V7.33606C9.33333 6.80563 9.12262 6.29692 8.74755 5.92185C8.37247 5.54677 7.86377 5.33606 7.33333 5.33606ZM7.05333 6.66939L5.13333 8.58939C5.00871 8.71154 4.84117 8.77997 4.66667 8.77997C4.49217 8.77997 4.32462 8.71154 4.2 8.58939L2.28 6.66939H7.05333ZM8 10.6694C8 10.8462 7.92976 11.0158 7.80474 11.1408C7.67971 11.2658 7.51014 11.3361 7.33333 11.3361H2C1.82319 11.3361 1.65362 11.2658 1.5286 11.1408C1.40357 11.0158 1.33333 10.8462 1.33333 10.6694V7.60939L3.25333 9.52273C3.43697 9.71151 3.65676 9.86134 3.89959 9.96328C4.14242 10.0652 4.40331 10.1172 4.66667 10.1161C5.19692 10.1156 5.70529 9.90457 6.08 9.52939L8 7.60939V10.6694ZM2.66667 2.66939H5.06L4.86 2.86273C4.79751 2.9247 4.74792 2.99844 4.71407 3.07968C4.68023 3.16092 4.6628 3.24805 4.6628 3.33606C4.6628 3.42407 4.68023 3.51121 4.71407 3.59245C4.74792 3.67368 4.79751 3.74742 4.86 3.80939C4.92198 3.87188 4.99571 3.92148 5.07695 3.95532C5.15819 3.98917 5.24533 4.00659 5.33333 4.00659C5.42134 4.00659 5.50848 3.98917 5.58972 3.95532C5.67096 3.92148 5.74469 3.87188 5.80667 3.80939L7.14 2.47606C7.20069 2.41266 7.24827 2.3379 7.28 2.25606C7.34668 2.09375 7.34668 1.9117 7.28 1.74939C7.24827 1.66756 7.20069 1.5928 7.14 1.52939L5.80667 0.196061C5.68113 0.0705252 5.51087 -2.64547e-09 5.33333 0C5.1558 2.64547e-09 4.98554 0.0705252 4.86 0.196061C4.73446 0.321597 4.66394 0.49186 4.66394 0.669394C4.66394 0.846929 4.73446 1.01719 4.86 1.14273L5.06 1.33606H2.66667C2.48986 1.33606 2.32029 1.4063 2.19526 1.53132C2.07024 1.65635 2 1.82592 2 2.00273C2 2.17954 2.07024 2.34911 2.19526 2.47413C2.32029 2.59916 2.48986 2.66939 2.66667 2.66939Z" fill="#F4A127"/>
</svg>
