<?xml version="1.0" standalone="no"?>
<!DOCTYPE svg PUBLIC "-//W3C//DTD SVG 20010904//EN"
 "http://www.w3.org/TR/2001/REC-SVG-20010904/DTD/svg10.dtd">
<svg version="1.0" xmlns="http://www.w3.org/2000/svg"
 width="96.000000pt" height="96.000000pt" viewBox="0 0 96.000000 96.000000"
 preserveAspectRatio="xMidYMid meet">

<g transform="translate(0.000000,96.000000) scale(0.100000,-0.100000)"
fill="#000000" stroke="none">
<path d="M221 941 c-17 -17 -19 -35 -19 -161 0 -184 -4 -180 148 -180 l110 0
0 -39 c0 -30 -4 -40 -20 -44 -11 -3 -20 -12 -20 -21 0 -13 -20 -16 -127 -18
l-128 -3 -3 -57 -3 -58 -67 0 c-40 0 -73 -5 -80 -12 -17 -17 -17 -239 0 -256
7 -7 40 -12 80 -12 61 0 68 -2 68 -19 0 -14 -8 -21 -27 -23 -17 -2 -28 -9 -28
-18 0 -12 15 -15 75 -15 60 0 75 3 75 15 0 9 -11 16 -27 18 -20 2 -28 9 -28
23 0 17 7 19 68 19 40 0 73 5 80 12 17 17 17 239 0 256 -7 7 -40 12 -80 12
l-68 0 0 40 0 40 109 0 c100 0 109 -2 114 -20 4 -17 14 -20 57 -20 43 0 53 3
57 20 5 18 14 20 114 20 l109 0 0 -40 0 -40 -68 0 c-40 0 -73 -5 -80 -12 -17
-17 -17 -239 0 -256 7 -7 40 -12 80 -12 61 0 68 -2 68 -19 0 -14 -8 -21 -27
-23 -17 -2 -28 -9 -28 -18 0 -12 15 -15 75 -15 60 0 75 3 75 15 0 9 -11 16
-27 18 -20 2 -28 9 -28 23 0 17 7 19 68 19 40 0 73 5 80 12 17 17 17 239 0
256 -7 7 -40 12 -80 12 l-67 0 -3 58 -3 57 -127 3 c-108 2 -128 5 -128 18 0 9
-9 18 -20 21 -16 4 -20 14 -20 44 l0 39 110 0 c152 0 148 -4 148 180 0 126 -2
144 -19 161 -18 18 -36 19 -259 19 -223 0 -241 -1 -259 -19z m494 -81 l0 -55
-235 0 -235 0 -3 44 c-6 76 -19 72 240 69 l233 -3 0 -55z m0 -160 l0 -55 -235
0 -235 0 -3 44 c-6 76 -19 72 240 69 l233 -3 0 -55z m-215 -240 c0 -13 -7 -20
-20 -20 -13 0 -20 7 -20 20 0 13 7 20 20 20 13 0 20 -7 20 -20z m-180 -240 l0
-100 -140 0 -140 0 0 100 0 100 140 0 140 0 0 -100z m600 0 l0 -100 -140 0
-140 0 0 100 0 100 140 0 140 0 0 -100z"/>
<path d="M284 887 c-9 -25 0 -62 16 -62 10 0 15 10 15 34 0 36 -21 54 -31 28z"/>
<path d="M364 887 c-9 -25 0 -62 16 -62 10 0 15 10 15 34 0 36 -21 54 -31 28z"/>
<path d="M564 869 c-10 -17 13 -36 27 -22 12 12 4 33 -11 33 -5 0 -12 -5 -16
-11z"/>
<path d="M644 869 c-10 -17 13 -36 27 -22 12 12 4 33 -11 33 -5 0 -12 -5 -16
-11z"/>
<path d="M284 727 c-9 -25 0 -62 16 -62 10 0 15 10 15 34 0 36 -21 54 -31 28z"/>
<path d="M364 727 c-9 -25 0 -62 16 -62 10 0 15 10 15 34 0 36 -21 54 -31 28z"/>
<path d="M564 709 c-10 -17 13 -36 27 -22 12 12 4 33 -11 33 -5 0 -12 -5 -16
-11z"/>
<path d="M644 709 c-10 -17 13 -36 27 -22 12 12 4 33 -11 33 -5 0 -12 -5 -16
-11z"/>
</g>
</svg>
