<svg width="19" height="22" viewBox="0 0 19 22" fill="none" xmlns="http://www.w3.org/2000/svg">
<path opacity="0.9" d="M8.00002 17.945C5.71601 17.6867 3.61734 16.5645 2.13434 14.8083C0.651336 13.0522 -0.103622 10.7952 0.0242692 8.50019C0.15216 6.20518 1.15321 4.04606 2.82215 2.46555C4.49109 0.885031 6.70146 0.00288935 9.00002 2.39035e-06C11.3014 -0.00167388 13.516 0.878338 15.1886 2.45914C16.8611 4.03994 17.8646 6.20142 17.9926 8.49924C18.1207 10.7971 17.3636 13.0567 15.877 14.8135C14.3905 16.5704 12.2874 17.691 10 17.945V22H8.00002V17.945ZM9.00002 16C9.91927 16 10.8295 15.8189 11.6788 15.4672C12.5281 15.1154 13.2998 14.5998 13.9498 13.9497C14.5998 13.2997 15.1154 12.5281 15.4672 11.6788C15.819 10.8295 16 9.91926 16 9C16 8.08075 15.819 7.1705 15.4672 6.32122C15.1154 5.47194 14.5998 4.70026 13.9498 4.05025C13.2998 3.40024 12.5281 2.88463 11.6788 2.53285C10.8295 2.18106 9.91927 2 9.00002 2C7.14351 2 5.36303 2.7375 4.05027 4.05025C2.73752 5.36301 2.00002 7.14349 2.00002 9C2.00002 10.8565 2.73752 12.637 4.05027 13.9497C5.36303 15.2625 7.14351 16 9.00002 16Z" fill="#313E47"/>
</svg>
