<svg width="24" height="24" viewBox="0 0 24 24" fill="none" xmlns="http://www.w3.org/2000/svg">
<path d="M20.0004 12L18.0004 12.5C17.1276 12.5763 16.2486 12.4606 15.4254 12.161C14.6021 11.8613 13.8544 11.385 13.2349 10.7655C12.6154 10.146 12.1391 9.39828 11.8394 8.575C11.5397 7.75171 11.424 6.87279 11.5004 6L12.0004 4L20.0004 12Z" stroke="#000" stroke-width="2" stroke-linecap="round" stroke-linejoin="round"/>
<path d="M20 12C20 13.5823 19.5308 15.129 18.6518 16.4446C17.7727 17.7602 16.5233 18.7855 15.0615 19.391C13.5997 19.9965 11.9911 20.155 10.4393 19.8463C8.88743 19.5376 7.46197 18.7757 6.34315 17.6569C5.22433 16.538 4.4624 15.1126 4.15372 13.5607C3.84504 12.0089 4.00347 10.4003 4.60897 8.93853C5.21447 7.47672 6.23985 6.22729 7.55544 5.34824C8.87103 4.46919 10.4178 4 12 4" stroke="#000" stroke-width="2" stroke-linecap="round" stroke-linejoin="round"/>

</svg>
