<svg width="20" height="20" viewBox="0 0 20 20" fill="none" xmlns="http://www.w3.org/2000/svg">
<path d="M7.55 9.5C6.95326 9.5 6.38097 9.26295 5.95901 8.84099C5.53705 8.41903 5.3 7.84674 5.3 7.25C5.3 6.65326 5.53705 6.08097 5.95901 5.65901C6.38097 5.23705 6.95326 5 7.55 5C8.14674 5 8.71903 5.23705 9.14099 5.65901C9.56295 6.08097 9.8 6.65326 9.8 7.25C9.8 7.84674 9.56295 8.41903 9.14099 8.84099C8.71903 9.26295 8.14674 9.5 7.55 9.5ZM8 17.748V14.4C8 13.912 8.144 13.463 8.404 13.062C7.51266 12.9352 6.60468 12.9957 5.73806 13.2397C4.87144 13.4837 4.06525 13.9058 3.371 14.479C4.46407 16.0966 6.11014 17.2594 8 17.749V17.748ZM2.453 12.66C3.91349 11.5792 5.68308 10.9971 7.5 11C8.543 11 9.543 11.188 10.467 11.532C11.345 11.189 12.392 11 13.5 11C15.16 11 16.685 11.424 17.706 12.156C18.0435 10.9459 18.0913 9.67325 17.8455 8.44122C17.5997 7.20918 17.0671 6.05236 16.291 5.06444C15.5149 4.07652 14.517 3.28527 13.3782 2.75478C12.2394 2.2243 10.9916 1.96948 9.73595 2.01097C8.48032 2.05246 7.2521 2.38909 6.15077 2.9936C5.04945 3.59811 4.10597 4.4535 3.39676 5.4905C2.68755 6.5275 2.23254 7.71695 2.06858 8.96253C1.90461 10.2081 2.03631 11.4748 2.453 12.66ZM16.879 14.086C16.486 13.553 15.171 13 13.5 13C11.494 13 10 13.797 10 14.4V18C11.3878 18.0008 12.752 17.6403 13.9583 16.954C15.1646 16.2678 16.1715 15.2794 16.88 14.086H16.879ZM10 20C4.477 20 0 15.523 0 10C0 4.477 4.477 0 10 0C15.523 0 20 4.477 20 10C20 15.523 15.523 20 10 20ZM13.5 10.5C12.9696 10.5 12.4609 10.2893 12.0858 9.91421C11.7107 9.53914 11.5 9.03043 11.5 8.5C11.5 7.96957 11.7107 7.46086 12.0858 7.08579C12.4609 6.71071 12.9696 6.5 13.5 6.5C14.0304 6.5 14.5391 6.71071 14.9142 7.08579C15.2893 7.46086 15.5 7.96957 15.5 8.5C15.5 9.03043 15.2893 9.53914 14.9142 9.91421C14.5391 10.2893 14.0304 10.5 13.5 10.5Z" fill="#5C6470"/>
</svg>
