<svg width="14" height="16" viewBox="0 0 14 16" fill="none" xmlns="http://www.w3.org/2000/svg">
<path d="M2.63045 3.78532C3.87002 2.81237 5.41163 2.28334 7 2.28582C8.65278 2.28582 10.1718 2.84661 11.3696 3.78532L12.4997 2.67822L13.5994 3.7556L12.4693 4.8627C13.292 5.87162 13.8071 7.08759 13.9555 8.37067C14.1039 9.65374 13.8794 10.9518 13.308 12.1154C12.7366 13.279 11.8414 14.261 10.7254 14.9482C9.60946 15.6354 8.31812 16 7 16C5.68188 16 4.39054 15.6354 3.27459 14.9482C2.15865 14.261 1.26345 13.279 0.692009 12.1154C0.120572 10.9518 -0.103878 9.65374 0.0444891 8.37067C0.192856 7.08759 0.708011 5.87162 1.53067 4.8627L0.400559 3.75636L1.50034 2.67898L2.63045 3.78608V3.78532ZM7.77778 8.38134V4.9488L3.88889 9.90522H6.22222V13.334L10.1111 8.38134H7.77778ZM3.88889 0H10.1111V1.52388H3.88889V0Z" fill="#F51A51"/>
</svg>
