<svg width="24" height="24" viewBox="0 0 24 24" fill="none" xmlns="http://www.w3.org/2000/svg">
<g clip-path="url(#clip0_905:54)">
<path fill-rule="evenodd" clip-rule="evenodd" d="M5 14.9146C5.5826 14.7087 6 14.1531 6 13.5C6 12.6716 5.32843 12 4.5 12C3.67157 12 3 12.6716 3 13.5C3 14.1531 3.4174 14.7087 4 14.9146L4 16.5C4 16.5733 4.01575 16.6428 4.04406 16.7055C4.01542 16.7986 4 16.8975 4 17C4 17.5523 4.44772 18 5 18H9C9.55228 18 10 17.5523 10 17C10 16.4477 9.55228 16 9 16H5V14.9146Z" fill="#5C6470"/>
<path fill-rule="evenodd" clip-rule="evenodd" d="M21 5V3H21.172C21.702 3 22.211 3.21 22.586 3.586L27.414 8.414C27.789 8.789 28 9.298 28 9.828V17H30V19H21.874C21.429 20.726 19.864 22 18 22C16.136 22 14.57 20.726 14.126 19H10C9.448 19 9 18.552 9 18V14H11V17H14.126C14.57 15.275 16.136 14 18 14C19.864 14 21.43 15.275 21.874 17H26V9.828L21.172 5H21ZM16 18C16 16.895 16.895 16 18 16C19.105 16 20 16.895 20 18C20 19.105 19.105 20 18 20C16.895 20 16 19.105 16 18Z" fill="#5C6470"/>
<path d="M19 4C19 3.44772 19.4477 3 20 3H21V13C21 13.5523 20.5523 14 20 14H9V13C9 12.4477 9.44772 12 10 12H19V4Z" fill="#5C6470"/>
</g>
<defs>
<clipPath id="clip0_905:54">
<rect width="24" height="24" fill="white"/>
</clipPath>
</defs>
</svg>
