<svg width="21" height="19" viewBox="0 0 21 19" fill="none" xmlns="http://www.w3.org/2000/svg">
<path d="M12.172 0C12.702 0 13.211 0.21 13.586 0.586L18.414 5.414C18.789 5.789 19 6.298 19 6.828V14H21V16H12.874C12.429 17.726 10.864 19 9 19C7.136 19 5.57 17.726 5.126 16H1C0.448 16 0 15.552 0 15V2C0 0.895 0.895 0 2 0H12.172ZM9 13C7.895 13 7 13.895 7 15C7 16.105 7.895 17 9 17C10.105 17 11 16.105 11 15C11 13.895 10.105 13 9 13ZM12.172 2H2V14H5.126C5.57 12.275 7.136 11 9 11C10.864 11 12.43 12.275 12.874 14H17V6.828L12.172 2ZM12 4V10H4V4H12ZM10 6H6V8H10V6Z" fill="#FF1749"/>
</svg>
