<svg width="32" height="32" viewBox="0 0 32 32" fill="none" xmlns="http://www.w3.org/2000/svg">
<path fill-rule="evenodd" clip-rule="evenodd" d="M8.69788 7H20.1565V4H8.69788C6.48874 4 4.69788 5.79086 4.69788 8V9.5L2.1418 9.5C1.96547 9.5 1.87543 9.71161 1.99769 9.83868L5.85781 13.8502C5.93649 13.932 6.06736 13.932 6.14604 13.8502L10.0062 9.83867C10.1284 9.71161 10.0384 9.5 9.86205 9.5L7.69788 9.5V8C7.69788 7.44772 8.14559 7 8.69788 7ZM12.4265 24.1859V27.1859H23.8838C26.0929 27.1859 27.8838 25.395 27.8838 23.1859V21.5H29.9585C30.1298 21.5 30.2218 21.2986 30.1097 21.1691L26.6503 17.1746C26.5706 17.0825 26.4277 17.0825 26.348 17.1746L22.8886 21.1691C22.7764 21.2986 22.8685 21.5 23.0398 21.5H24.8838V23.1859C24.8838 23.7382 24.4361 24.1859 23.8838 24.1859H12.4265Z" fill="#313E47"/>
<path d="M2.16797 27.9165C2.16797 26.7672 2.62452 25.665 3.43717 24.8524C4.24983 24.0397 5.35203 23.5832 6.5013 23.5832C7.65057 23.5832 8.75277 24.0397 9.56543 24.8524C10.3781 25.665 10.8346 26.7672 10.8346 27.9165H2.16797ZM6.5013 23.0415C4.70568 23.0415 3.2513 21.5871 3.2513 19.7915C3.2513 17.9959 4.70568 16.5415 6.5013 16.5415C8.29693 16.5415 9.7513 17.9959 9.7513 19.7915C9.7513 21.5871 8.29693 23.0415 6.5013 23.0415Z" fill="#313E47"/>
<path d="M22 14C22 12.9391 22.4214 11.9217 23.1716 11.1716C23.9217 10.4214 24.9391 10 26 10C27.0609 10 28.0783 10.4214 28.8284 11.1716C29.5786 11.9217 30 12.9391 30 14H22ZM26 9.5C24.3425 9.5 23 8.1575 23 6.5C23 4.8425 24.3425 3.5 26 3.5C27.6575 3.5 29 4.8425 29 6.5C29 8.1575 27.6575 9.5 26 9.5Z" fill="#313E47"/>
</svg>
