<svg width="18" height="20" viewBox="0 0 18 20" fill="none" xmlns="http://www.w3.org/2000/svg">
<path d="M12 2H2V18H16V6H12V2ZM0 0.992C0 0.444 0.447 0 0.999 0H13L18 5V18.993C18.0009 19.1243 17.976 19.2545 17.9266 19.3762C17.8772 19.4979 17.8043 19.6087 17.7121 19.7022C17.6199 19.7957 17.5101 19.8701 17.3892 19.9212C17.2682 19.9723 17.1383 19.9991 17.007 20H0.993C0.730378 19.9982 0.479017 19.8931 0.293218 19.7075C0.107418 19.5219 0.00209465 19.2706 0 19.008V0.992ZM10.529 12.446C9.69033 12.936 8.70206 13.1043 7.74847 12.9195C6.79488 12.7346 5.94106 12.2093 5.34623 11.4414C4.75139 10.6735 4.45614 9.71544 4.51553 8.74591C4.57492 7.77639 4.98489 6.86156 5.669 6.172C6.35745 5.48368 7.27329 5.07006 8.24487 5.00865C9.21646 4.94725 10.1771 5.24228 10.9467 5.83845C11.7163 6.43463 12.2421 7.29101 12.4255 8.2471C12.6089 9.20319 12.4374 10.1934 11.943 11.032L14.153 13.242L12.739 14.657L10.529 12.447V12.446ZM9.911 10.414C10.102 10.2295 10.2544 10.0088 10.3592 9.76481C10.464 9.5208 10.5192 9.25836 10.5215 8.9928C10.5238 8.72724 10.4732 8.46388 10.3726 8.21809C10.2721 7.9723 10.1236 7.749 9.93579 7.56121C9.748 7.37342 9.5247 7.22492 9.27891 7.12436C9.03312 7.02379 8.76976 6.97319 8.5042 6.9755C8.23864 6.97781 7.9762 7.03298 7.73219 7.1378C7.48818 7.24262 7.26749 7.39498 7.083 7.586C6.71868 7.9632 6.5171 8.46841 6.52165 8.9928C6.52621 9.5172 6.73655 10.0188 7.10736 10.3896C7.47818 10.7605 7.9798 10.9708 8.5042 10.9753C9.02859 10.9799 9.5338 10.7783 9.911 10.414Z" fill="#5C6470"/>
</svg>
