<svg width="24" height="24" viewBox="0 0 24 24" fill="none" xmlns="http://www.w3.org/2000/svg">
<g clip-path="url(#clip0_3137_566)">
<path d="M19.0711 19.071C22.9764 15.1657 22.9764 8.83424 19.0711 4.92889C15.1657 1.02354 8.83428 1.02354 4.92893 4.92889C1.02358 8.83424 1.02358 15.1657 4.92893 19.071L6.34315 17.6568C3.21915 14.5328 3.21915 9.4671 6.34315 6.3431C9.46714 3.2191 14.5329 3.2191 17.6569 6.3431C20.7809 9.4671 20.7809 14.5328 17.6569 17.6568C15.7123 19.6014 13.0161 20.336 10.5045 19.8594L12.3536 18.0104L10.9393 16.5961L6.6967 20.8388L10.9393 25.0814L12.3536 23.6672L10.5858 21.8994C13.5938 22.328 16.7581 21.384 19.0711 19.071ZM16.2426 14.8284L13.0006 11.5863V7H10.9994L11.0009 12.415L14.8284 16.2426L16.2426 14.8284Z" fill="#5C6470"/>
</g>
<defs>
<clipPath id="clip0_3137_566">
<rect width="24" height="24" fill="white"/>
</clipPath>
</defs>
</svg>
