<svg width="24" height="28" viewBox="0 0 24 28" fill="none" xmlns="http://www.w3.org/2000/svg">
<path d="M18.6667 19.3332H21.3333V3.33317H8V5.99984H18.6667V19.3332ZM18.6667 21.9998V25.9998C18.6667 26.7358 18.0667 27.3332 17.324 27.3332H1.34267C1.16684 27.3342 0.99253 27.3005 0.829763 27.234C0.666997 27.1675 0.518978 27.0695 0.394211 26.9456C0.269445 26.8217 0.170391 26.6743 0.102739 26.512C0.0350875 26.3497 0.000172499 26.1757 0 25.9998L0.00400003 7.33317C0.00400003 6.59717 0.604 5.99984 1.34667 5.99984H5.33333V1.99984C5.33333 1.64622 5.47381 1.30708 5.72386 1.05703C5.97391 0.80698 6.31305 0.666504 6.66667 0.666504H22.6667C23.0203 0.666504 23.3594 0.80698 23.6095 1.05703C23.8595 1.30708 24 1.64622 24 1.99984V20.6665C24 21.0201 23.8595 21.3593 23.6095 21.6093C23.3594 21.8594 23.0203 21.9998 22.6667 21.9998H18.6667ZM2.67067 8.6665L2.66667 24.6665H16V8.6665H2.67067ZM5.33333 19.3332H11.3333C11.5101 19.3332 11.6797 19.2629 11.8047 19.1379C11.9298 19.0129 12 18.8433 12 18.6665C12 18.4897 11.9298 18.3201 11.8047 18.1951C11.6797 18.0701 11.5101 17.9998 11.3333 17.9998H7.33333C6.44928 17.9998 5.60143 17.6486 4.97631 17.0235C4.35119 16.3984 4 15.5506 4 14.6665C4 13.7824 4.35119 12.9346 4.97631 12.3095C5.60143 11.6844 6.44928 11.3332 7.33333 11.3332H8V9.99984H10.6667V11.3332H13.3333V13.9998H7.33333C7.15652 13.9998 6.98695 14.0701 6.86193 14.1951C6.7369 14.3201 6.66667 14.4897 6.66667 14.6665C6.66667 14.8433 6.7369 15.0129 6.86193 15.1379C6.98695 15.2629 7.15652 15.3332 7.33333 15.3332H11.3333C12.2174 15.3332 13.0652 15.6844 13.6904 16.3095C14.3155 16.9346 14.6667 17.7824 14.6667 18.6665C14.6667 19.5506 14.3155 20.3984 13.6904 21.0235C13.0652 21.6486 12.2174 21.9998 11.3333 21.9998H10.6667V23.3332H8V21.9998H5.33333V19.3332Z" fill="#313E47"/>
</svg>
