<svg width="26" height="29" viewBox="0 0 26 29" fill="none" xmlns="http://www.w3.org/2000/svg">
<path d="M13.6654 18.0028V20.7895C12.4586 20.3628 11.1671 20.232 9.89924 20.4079C8.63141 20.5838 7.4243 21.0613 6.37927 21.8004C5.33425 22.5395 4.48182 23.5186 3.89358 24.6554C3.30534 25.7922 2.99845 27.0535 2.9987 28.3335L0.332032 28.3322C0.331618 26.704 0.703926 25.0974 1.42043 23.6354C2.13693 22.1733 3.17861 20.8947 4.46565 19.8975C5.75269 18.9003 7.25093 18.211 8.84557 17.8824C10.4402 17.5537 12.0889 17.5945 13.6654 18.0015V18.0028ZM10.9987 16.3335C6.5787 16.3335 2.9987 12.7535 2.9987 8.3335C2.9987 3.9135 6.5787 0.333496 10.9987 0.333496C15.4187 0.333496 18.9987 3.9135 18.9987 8.3335C18.9987 12.7535 15.4187 16.3335 10.9987 16.3335ZM10.9987 13.6668C13.9454 13.6668 16.332 11.2802 16.332 8.3335C16.332 5.38683 13.9454 3.00016 10.9987 3.00016C8.05203 3.00016 5.66536 5.38683 5.66536 8.3335C5.66536 11.2802 8.05203 13.6668 10.9987 13.6668ZM18.9987 21.6668V17.6668H21.6654V21.6668H25.6654V24.3335H21.6654V28.3335H18.9987V24.3335H14.9987V21.6668H18.9987Z" fill="#313E47"/>
</svg>
