<svg width="24" height="24" viewBox="0 0 24 24" fill="none" xmlns="http://www.w3.org/2000/svg">
<path d="M18.4167 16.8333H17.5833C16.8998 16.8331 16.2293 17.0196 15.6441 17.3729C15.059 17.7261 14.5815 18.2326 14.2633 18.8375C14.2544 18.7252 14.2499 18.6126 14.25 18.5C14.25 16.1988 16.1154 14.3333 18.4167 14.3333V12.25L22.5833 15.5833L18.4167 18.9167V16.8333Z" fill="#5C6470"/>
<path fill-rule="evenodd" clip-rule="evenodd" d="M15.586 3.586C15.211 3.21 14.702 3 14.172 3H4C2.895 3 2 3.895 2 5V18C2 18.552 2.448 19 3 19H7.126C7.57 20.726 9.136 22 11 22C12.2419 22 13.351 21.4345 14.0847 20.5466C13.5577 20.0924 13.1106 19.5481 12.7672 18.9377C12.4312 19.5698 11.7661 20 11 20C9.895 20 9 19.105 9 18C9 16.895 9.895 16 11 16C11.3668 16 11.7105 16.0986 12.006 16.2708C12.002 16.1811 12 16.0908 12 16C12 15.3753 12.0955 14.773 12.2726 14.2067C11.8728 14.0726 11.4449 14 11 14C9.136 14 7.57 15.275 7.126 17H4V5H14.172L19 9.828V10.083C19.7179 10.2034 20.3926 10.4513 21 10.8027V9.828C21 9.298 20.789 8.789 20.414 8.414L15.586 3.586ZM14 11.5278V7H6V13H12.8027C13.1223 12.4475 13.5274 11.9508 14 11.5278ZM8 9H12V11H8V9Z" fill="#5C6470"/>
</svg>
