<svg width="28" height="28" viewBox="0 0 28 28" fill="none" xmlns="http://www.w3.org/2000/svg">
<path d="M13.172 4C13.702 4 14.211 4.21 14.586 4.586L19.414 9.414C19.789 9.789 20 10.298 20 10.828V18H22V20H13.874C13.429 21.726 11.864 23 10 23C8.136 23 6.57 21.726 6.126 20H2C1.448 20 1 19.552 1 19V6C1 4.895 1.895 4 3 4H13.172ZM10 17C8.895 17 8 17.895 8 19C8 20.105 8.895 21 10 21C11.105 21 12 20.105 12 19C12 17.895 11.105 17 10 17ZM13.172 6H3V18H6.126C6.57 16.275 8.136 15 10 15C11.864 15 13.43 16.275 13.874 18H18V10.828L13.172 6ZM13 8V14H5V8H13ZM11 10H7V12H11V10Z" fill="#5C6470"/>
<path d="M22.5861 5.99987L20.1111 3.52487L20.8181 2.81787L24.0001 5.99987L20.8181 9.18187L20.1111 8.47487L22.5861 5.99987Z" fill="#5C6470"/>
</svg>
