<svg width="14" height="12" viewBox="0 0 14 12" fill="none" xmlns="http://www.w3.org/2000/svg">
<path d="M3 9.49996H9V4.57846L6 1.85146L3 4.57846V9.49996ZM9.5 10.5H2.5C2.36739 10.5 2.24021 10.4473 2.14645 10.3535C2.05268 10.2597 2 10.1326 2 9.99996V5.49996H0.5L5.6635 0.80596C5.75556 0.722199 5.87554 0.675781 6 0.675781C6.12446 0.675781 6.24444 0.722199 6.3365 0.80596L11.5 5.49996H9V9.49996C9 9.63257 9.94732 10.2597 9.85355 10.3535C9.75979 10.4473 9.63261 10.5 9.5 10.5ZM3.75 6.49996H4.75C4.75 6.83148 4.8817 7.14942 5.11612 7.38384C5.35054 7.61826 5.66848 7.74996 6 7.74996C6.33152 7.74996 6.64946 7.61826 6.88388 7.38384C7.1183 7.14942 7.25 6.83148 7.25 6.49996H8.25C8.25 7.0967 8.01295 7.66899 7.59099 8.09095C7.16903 8.51291 6.59674 8.74996 6 8.74996C5.40326 8.74996 4.83097 8.51291 4.40901 8.09095C3.98705 7.66899 3.75 7.0967 3.75 6.49996Z" fill="#1893FF" fill-opacity="0.7"/>
<path d="M11.4999 7.6945L10.4999 6.5L11.0555 6L12.9999 8.11696L11.0555 10.1579L10.4999 9.5L11.4999 8.5H8.99988L9 7.6945H11.4999Z" fill="#1893FF"/>
</svg>
