<svg width="14" height="12" viewBox="0 0 14 12" fill="none" xmlns="http://www.w3.org/2000/svg">
<g clip-path="url(#clip0_1522:223)">
<path d="M4.66681 9.49996H10.889V4.57846L7.77792 1.85146L4.66681 4.57846V9.49996ZM11.4076 10.5H4.14829C4.01077 10.5 3.87889 10.4473 3.78165 10.3535C3.6844 10.2597 4.66681 9.49996 4.66681 9.49996V5.49996H2.07422L7.42896 0.80596C7.52442 0.722199 7.64885 0.675781 7.77792 0.675781C7.90699 0.675781 8.03142 0.722199 8.12689 0.80596L13.4816 5.49996H11.9261V9.99996C11.9261 10.1326 11.8714 10.2597 11.7742 10.3535C11.677 10.4473 11.5451 10.5 11.4076 10.5ZM5.44459 6.49996H6.48163C6.48163 6.83148 6.6182 7.14942 6.8613 7.38384C7.10441 7.61826 7.43412 7.74996 7.77792 7.74996C8.12172 7.74996 8.45144 7.61826 8.69454 7.38384C8.93764 7.14942 9.07422 6.83148 9.07422 6.49996H10.1113C10.1113 7.0967 9.86542 7.66899 9.42784 8.09095C8.99025 8.51291 8.39676 8.74996 7.77792 8.74996C7.15908 8.74996 6.56559 8.51291 6.12801 8.09095C5.69042 7.66899 5.44459 7.0967 5.44459 6.49996Z" fill="#313E47" fill-opacity="0.6"/>
</g>
<path d="M3.5 7.6945L2.5 6.5L3.05562 6L5 8.11696L3.05562 10.1579L2.5 9.5L3.5 8.5H1L1.00012 7.6945H3.5Z" fill="#313E47" fill-opacity="0.8"/>
<defs>
<clipPath id="clip0_1522:223">
<rect width="12.4444" height="12" fill="white" transform="translate(1.55566)"/>
</clipPath>
</defs>
</svg>
