<svg width="20" height="20" viewBox="0 0 20 20" fill="none" xmlns="http://www.w3.org/2000/svg">
<path d="M7.47344 14.9993C7.37437 15.6946 7.02778 16.3307 6.49734 16.791C5.96689 17.2512 5.2882 17.5046 4.58594 17.5046C3.88367 17.5046 3.20499 17.2512 2.67454 16.791C2.14409 16.3307 1.7975 15.6946 1.69844 14.9993H0.835938V4.99935C0.835937 4.77834 0.923735 4.56637 1.08002 4.41009C1.2363 4.25381 1.44826 4.16602 1.66927 4.16602H13.3359C13.557 4.16602 13.7689 4.25381 13.9252 4.41009C14.0815 4.56637 14.1693 4.77834 14.1693 4.99935V6.66602H16.6693L19.1693 10.046V14.9993H17.4734C17.3744 15.6946 17.0278 16.3307 16.4973 16.791C15.9669 17.2512 15.2882 17.5046 14.5859 17.5046C13.8837 17.5046 13.205 17.2512 12.6745 16.791C12.1441 16.3307 11.7975 15.6946 11.6984 14.9993H7.47344ZM12.5026 5.83268H2.5026V12.541C2.83141 12.2053 3.23644 11.9541 3.68323 11.8086C4.13002 11.6631 4.60535 11.6278 5.06875 11.7055C5.53215 11.7832 5.96992 11.9718 6.34478 12.2551C6.71964 12.5384 7.02051 12.9081 7.22177 13.3327H11.9501C12.0901 13.0385 12.2776 12.771 12.5026 12.541V5.83268ZM14.1693 10.8327H17.5026V10.5952L15.8293 8.33268H14.1693V10.8327ZM14.5859 15.8327C14.9176 15.8327 15.2356 15.7009 15.4701 15.4664C15.7046 15.2319 15.8364 14.9139 15.8364 14.5823C15.8364 14.2506 15.7046 13.9326 15.4701 13.6981C15.2356 13.4636 14.9176 13.3318 14.5859 13.3318C14.2543 13.3318 13.9363 13.4636 13.7018 13.6981C13.4673 13.9326 13.3355 14.2506 13.3355 14.5823C13.3355 14.9139 13.4673 15.2319 13.7018 15.4664C13.9363 15.7009 14.2543 15.8327 14.5859 15.8327ZM5.83594 14.5827C5.83594 14.4185 5.80361 14.256 5.74079 14.1043C5.67797 13.9527 5.58589 13.8149 5.46982 13.6988C5.35375 13.5827 5.21595 13.4907 5.06429 13.4278C4.91263 13.365 4.75009 13.3327 4.58594 13.3327C4.42179 13.3327 4.25924 13.365 4.10758 13.4278C3.95593 13.4907 3.81813 13.5827 3.70205 13.6988C3.58598 13.8149 3.49391 13.9527 3.43109 14.1043C3.36827 14.256 3.33594 14.4185 3.33594 14.5827C3.33594 14.9142 3.46763 15.2321 3.70205 15.4666C3.93647 15.701 4.25442 15.8327 4.58594 15.8327C4.91746 15.8327 5.2354 15.701 5.46982 15.4666C5.70424 15.2321 5.83594 14.9142 5.83594 14.5827Z" fill="#00B533"/>
</svg>
