<svg width="30" height="12" viewBox="0 0 30 12" fill="none" xmlns="http://www.w3.org/2000/svg">
<path d="M1.22003 0H28.4267C28.7603 0 29.0648 0.137811 29.2855 0.358425L29.2884 0.360741C29.5101 0.583671 29.6468 0.888825 29.6468 1.22003V10.78C29.6468 11.1146 29.5084 11.421 29.2878 11.641C29.0677 11.8616 28.762 12 28.4267 12H1.22003C0.88535 12 0.579039 11.8628 0.357846 11.6416C0.137811 11.4215 0 11.1164 0 10.78V1.22003C0 0.884192 0.137232 0.57846 0.357846 0.357846C0.57846 0.137232 0.883613 0 1.22003 0ZM3.72206 1.71338C4.06311 1.71338 4.33989 1.98958 4.33989 2.33121C4.33989 2.67226 4.06311 2.94904 3.72206 2.94904C3.38043 2.94904 3.10365 2.67226 3.10365 2.33121C3.10365 1.98958 3.38043 1.71338 3.72206 1.71338ZM3.72206 8.61783C4.06311 8.61783 4.33989 8.89404 4.33989 9.23567C4.33989 9.57672 4.06311 9.8535 3.72206 9.8535C3.38043 9.8535 3.10365 9.57672 3.10365 9.23567C3.10365 8.89404 3.38043 8.61783 3.72206 8.61783ZM25.9253 1.71338C26.2664 1.71338 26.5431 1.98958 26.5431 2.33121C26.5431 2.67226 26.2664 2.94904 25.9253 2.94904C25.5837 2.94904 25.3075 2.67226 25.3075 2.33121C25.3075 1.98958 25.5837 1.71338 25.9253 1.71338ZM25.9253 8.61783C26.2664 8.61783 26.5431 8.89404 26.5431 9.23567C26.5431 9.57672 26.2664 9.8535 25.9253 9.8535C25.5837 9.8535 25.3075 9.57672 25.3075 9.23567C25.3075 8.89404 25.5837 8.61783 25.9253 8.61783ZM5.40822 4.41807L5.74812 5.24088H5.79734L6.13723 4.41807H7.20729L6.52171 5.9062L7.20729 7.49797H6.11291L5.74348 6.61089H5.6989L5.3341 7.49797H4.28952L4.95947 5.93573L4.28952 4.41807H5.40822ZM8.37 4.41807L8.64099 5.50203H8.67516L8.95136 4.41807H10.0405L9.15402 6.66068V7.49797H8.16792V6.66068L7.28083 4.41807H8.37ZM12.894 7.49797H10.238V6.88188L11.4997 5.23625L11.4847 5.20672H10.4499L10.3613 4.41807H12.8743V5.03416L11.6277 6.68037L11.6422 6.7099H12.894V7.49797ZM14.0272 6.51245V5.98031C14.0272 5.89172 14.055 5.83497 14.1089 5.81007C14.1633 5.78576 14.2496 5.7736 14.3677 5.7736H15.5061V6.30573C15.5061 6.39433 15.4789 6.45107 15.425 6.47539C15.3706 6.50029 15.2843 6.51245 15.1662 6.51245H14.0272ZM19.3057 7.49797H16.8413V6.7099H17.7186V5.40359L16.8413 5.46265V4.674L17.9751 4.41807H18.7539V6.7099H19.3057V7.49797ZM19.9166 5.26578L19.7886 4.53098C20.2027 4.40649 20.6149 4.34395 21.0261 4.34395C21.1899 4.34395 21.3272 4.34916 21.4372 4.359C21.5472 4.36885 21.6613 4.39375 21.78 4.43312C21.8981 4.4725 21.9913 4.52635 22.0608 4.59525C22.2183 4.75275 22.297 4.99479 22.297 5.31963C22.297 5.64563 22.205 5.88477 22.0214 6.03937C21.8373 6.19398 21.4493 6.37116 20.8581 6.57151V6.7099H22.2478V7.49797H19.7197V6.88188C19.7197 6.69832 19.7545 6.52287 19.8228 6.35495C19.8662 6.25941 19.9693 6.14418 20.1338 6.00984C20.2223 5.93399 20.3416 5.86219 20.491 5.79328C20.6404 5.7238 20.7817 5.65895 20.9149 5.59873C21.0481 5.53793 21.1552 5.48755 21.238 5.44818V5.18182C21.0897 5.16561 20.9537 5.1575 20.8286 5.1575C20.5263 5.1575 20.2223 5.1934 19.9166 5.26578ZM24.2982 5.50203V5.13897C24.1998 5.12218 24.0405 5.11407 23.8199 5.11407C23.5999 5.11407 23.3254 5.14823 22.9971 5.21772L22.8691 4.53098C23.2698 4.40649 23.6578 4.34395 24.0324 4.34395C24.3538 4.34395 24.5871 4.36364 24.7319 4.40301C24.8767 4.44239 24.9832 4.49045 25.0521 4.54603C25.2032 4.674 25.2791 4.86856 25.2791 5.12739C25.2791 5.45628 25.1424 5.69311 24.8697 5.83729V5.86219C25.1951 5.99653 25.3578 6.24146 25.3578 6.59641C25.3578 6.77012 25.3306 6.91893 25.2762 7.04227C25.2223 7.16561 25.154 7.26115 25.0718 7.32831C24.9896 7.39548 24.8813 7.44876 24.7464 7.48813C24.546 7.5443 24.2646 7.57209 23.9016 7.57209C23.5385 7.57209 23.1749 7.52924 22.8095 7.44354L22.9479 6.674C23.26 6.74986 23.5246 6.78749 23.7412 6.78749C23.9577 6.78749 24.1436 6.77765 24.2982 6.75796V6.39896L23.4505 6.31558V5.60104L24.2982 5.50203ZM26.8083 10.6711L28.3185 9.16155V2.83845L26.8083 1.32832H2.83845L1.32831 2.83845V9.16097L2.83845 10.6711H26.8083Z" fill="#1893FF"/>
</svg>
