<svg width="14" height="14" viewBox="0 0 14 14" fill="none" xmlns="http://www.w3.org/2000/svg">
<path d="M7.0026 0.333008C10.6846 0.333008 13.6693 3.31767 13.6693 6.99967C13.6693 10.6817 10.6846 13.6663 7.0026 13.6663C3.3206 13.6663 0.335938 10.6817 0.335938 6.99967C0.335938 3.31767 3.3206 0.333008 7.0026 0.333008ZM7.0026 1.66634C4.05727 1.66634 1.66927 4.05434 1.66927 6.99967C1.66927 9.94501 4.05727 12.333 7.0026 12.333C9.94794 12.333 12.3359 9.94501 12.3359 6.99967C12.3359 4.05434 9.94794 1.66634 7.0026 1.66634ZM7.0026 2.33301C7.68127 2.33301 8.32594 2.47767 8.90794 2.73834L7.86594 3.77967C7.5906 3.70634 7.30127 3.66634 7.0026 3.66634C5.16194 3.66634 3.66927 5.15901 3.66927 6.99967C3.66927 7.91967 4.0426 8.75301 4.64527 9.35701L3.7026 10.2997L3.5986 10.1923C2.81594 9.35767 2.33594 8.23434 2.33594 6.99967C2.33594 4.42234 4.42527 2.33301 7.0026 2.33301ZM11.2639 5.09501C11.5239 5.67634 11.6693 6.32167 11.6693 6.99967C11.6693 8.28834 11.1466 9.45501 10.3026 10.2997L9.35994 9.35701C9.9626 8.75301 10.3359 7.91967 10.3359 6.99967C10.3359 6.70101 10.2966 6.41167 10.2226 6.13634L11.2639 5.09501ZM9.8306 3.22834L10.7739 4.17101L8.29127 6.65501C8.3206 6.76501 8.33594 6.88034 8.33594 6.99967C8.33594 7.73634 7.73927 8.33301 7.0026 8.33301C6.26594 8.33301 5.66927 7.73634 5.66927 6.99967C5.66927 6.26301 6.26594 5.66634 7.0026 5.66634C7.12194 5.66634 7.23727 5.68167 7.34727 5.71101L9.83127 3.22834H9.8306Z" fill="#FF0000"/>
</svg>
