<svg width="18" height="18" viewBox="0 0 18 18" fill="none" xmlns="http://www.w3.org/2000/svg">
<path d="M2.33383 0.270872C2.95788 0.0482454 3.6323 0.00732677 4.27868 0.152873C4.92507 0.298419 5.51687 0.624451 5.98527 1.09306C6.45367 1.56168 6.77944 2.15362 6.9247 2.80007C7.06995 3.44652 7.02873 4.12092 6.80583 4.74487L17.6508 15.5899L15.5288 17.7109L4.68383 6.86687C4.05978 7.0895 3.38536 7.13042 2.73897 6.98487C2.09258 6.83932 1.50079 6.51329 1.03239 6.04468C0.563983 5.57607 0.238216 4.98413 0.0929592 4.33768C-0.0522979 3.69122 -0.0110779 3.01682 0.211827 2.39287L2.44783 4.62987C2.5862 4.77314 2.75171 4.88741 2.93472 4.96602C3.11773 5.04464 3.31456 5.08602 3.51373 5.08775C3.71289 5.08948 3.91041 5.05153 4.09476 4.9761C4.2791 4.90068 4.44658 4.7893 4.58742 4.64846C4.72826 4.50763 4.83964 4.34015 4.91506 4.1558C4.99048 3.97146 5.02843 3.77394 5.0267 3.57477C5.02497 3.3756 4.98359 3.17877 4.90498 2.99576C4.82637 2.81276 4.71209 2.64724 4.56883 2.50887L2.33283 0.269872L2.33383 0.270872ZM12.7008 2.15487L15.8828 0.386872L17.2968 1.80087L15.5288 4.98287L13.7608 5.33687L11.6408 7.45787L10.2258 6.04387L12.3468 3.92287L12.7008 2.15487ZM5.62983 9.93287L7.75083 12.0549L2.80083 17.0049C2.52786 17.2753 2.16154 17.4306 1.77741 17.4389C1.39327 17.4471 1.02061 17.3077 0.736281 17.0493C0.451948 16.7908 0.277624 16.4332 0.249259 16.05C0.220893 15.6668 0.340648 15.2873 0.583827 14.9899L0.680827 14.8829L5.63083 9.93287H5.62983Z" fill="#1893FF"/>
</svg>
