<svg width="17" height="13" viewBox="0 0 17 13" fill="none" xmlns="http://www.w3.org/2000/svg">
<path d="M6.47375 10.5C6.38459 11.1257 6.07266 11.6983 5.59526 12.1125C5.11786 12.5267 4.50704 12.7547 3.875 12.7547C3.24296 12.7547 2.63214 12.5267 2.15474 12.1125C1.67734 11.6983 1.36541 11.1257 1.27625 10.5H0.5V1.5C0.5 1.30109 0.579018 1.11032 0.71967 0.96967C0.860322 0.829018 1.05109 0.75 1.25 0.75H11.75C11.9489 0.75 12.1397 0.829018 12.2803 0.96967C12.421 1.11032 12.5 1.30109 12.5 1.5V3H14.75L17 6.042V10.5H15.4738C15.3846 11.1257 15.0727 11.6983 14.5953 12.1125C14.1179 12.5267 13.507 12.7547 12.875 12.7547C12.243 12.7547 11.6321 12.5267 11.1547 12.1125C10.6773 11.6983 10.3654 11.1257 10.2762 10.5H6.47375ZM11 2.25H2V8.2875C2.29592 7.9854 2.66045 7.75926 3.06256 7.62834C3.46468 7.49741 3.89247 7.46558 4.30953 7.53554C4.7266 7.60551 5.12058 7.7752 5.45796 8.03018C5.79533 8.28515 6.06611 8.61787 6.24725 9H10.5028C10.6287 8.73525 10.7975 8.4945 11 8.2875V2.25ZM12.5 6.75H15.5V6.53625L13.994 4.5H12.5V6.75ZM12.875 11.25C13.1735 11.25 13.4597 11.1314 13.6708 10.9204C13.8818 10.7093 14.0004 10.4231 14.0004 10.1246C14.0004 9.82616 13.8818 9.53991 13.6708 9.32887C13.4597 9.11782 13.1735 8.99925 12.875 8.99925C12.5765 8.99925 12.2903 9.11782 12.0792 9.32887C11.8682 9.53991 11.7496 9.82616 11.7496 10.1246C11.7496 10.4231 11.8682 10.7093 12.0792 10.9204C12.2903 11.1314 12.5765 11.25 12.875 11.25ZM5 10.125C5 9.97726 4.9709 9.83097 4.91436 9.69448C4.85783 9.55799 4.77496 9.43397 4.6705 9.32951C4.56603 9.22504 4.44201 9.14217 4.30552 9.08564C4.16903 9.0291 4.02274 9 3.875 9C3.72726 9 3.58097 9.0291 3.44448 9.08564C3.30799 9.14217 3.18397 9.22504 3.0795 9.32951C2.97504 9.43397 2.89217 9.55799 2.83564 9.69448C2.7791 9.83097 2.75 9.97726 2.75 10.125C2.75 10.4234 2.86853 10.7095 3.0795 10.9205C3.29048 11.1315 3.57663 11.25 3.875 11.25C4.17337 11.25 4.45952 11.1315 4.6705 10.9205C4.88147 10.7095 5 10.4234 5 10.125Z" fill="#313E47"/>
</svg>
