<svg width="18" height="23" viewBox="0 0 18 23" fill="none" xmlns="http://www.w3.org/2000/svg">
<path d="M8 13V15C6.4087 15 4.88258 15.6321 3.75736 16.7574C2.63214 17.8826 2 19.4087 2 21H0C0 18.8783 0.842855 16.8434 2.34315 15.3431C3.84344 13.8429 5.87827 13 8 13ZM8 12C4.685 12 2 9.315 2 6C2 2.685 4.685 0 8 0C11.315 0 14 2.685 14 6C14 9.315 11.315 12 8 12ZM8 10C10.21 10 12 8.21 12 6C12 3.79 10.21 2 8 2C5.79 2 4 3.79 4 6C4 8.21 5.79 10 8 10ZM16.828 20.071L14 23L11.172 20.071C9.609 18.453 9.609 15.831 11.172 14.213C11.5366 13.8298 11.9754 13.5248 12.4615 13.3163C12.9476 13.1079 13.4711 13.0004 14 13.0004C14.5289 13.0004 15.0524 13.1079 15.5385 13.3163C16.0246 13.5248 16.4633 13.8298 16.828 14.213C18.391 15.831 18.391 18.453 16.828 20.071ZM15.39 18.681C16.203 17.839 16.203 16.445 15.39 15.603C15.2119 15.4127 14.9966 15.2611 14.7575 15.1574C14.5184 15.0537 14.2606 15.0002 14 15.0002C13.7394 15.0002 13.4816 15.0537 13.2425 15.1574C13.0034 15.2611 12.7881 15.4127 12.61 15.603C11.797 16.445 11.797 17.839 12.61 18.682L14 20.12L15.39 18.68V18.681Z" fill="#313E47"/>
</svg>
