<svg width="240" height="240" viewBox="0 0 240 240" fill="none" xmlns="http://www.w3.org/2000/svg">
<path d="M20 220C20 198.783 28.4285 178.434 43.4315 163.431C58.4344 148.429 78.7827 140 100 140C121.217 140 141.566 148.429 156.569 163.431C171.571 178.434 180 198.783 180 220H160C160 204.087 153.679 188.826 142.426 177.574C131.174 166.321 115.913 160 100 160C84.087 160 68.8258 166.321 57.5736 177.574C46.3214 188.826 40 204.087 40 220H20ZM100 130C66.85 130 40 103.15 40 70C40 36.85 66.85 10 100 10C133.15 10 160 36.85 160 70C160 103.15 133.15 130 100 130ZM100 110C122.1 110 140 92.1 140 70C140 47.9 122.1 30 100 30C77.9 30 60 47.9 60 70C60 92.1 77.9 110 100 110ZM182.84 147.03C196.893 153.359 208.82 163.612 217.186 176.557C225.552 189.502 230.002 204.587 230 220H210C210.002 208.44 206.666 197.125 200.391 187.416C194.116 177.707 185.171 170.017 174.63 165.27L182.83 147.03H182.84ZM175.96 34.13C186.035 38.283 194.65 45.3354 200.71 54.3923C206.771 63.4492 210.004 74.1024 210 85C210.004 98.7233 204.877 111.952 195.625 122.088C186.374 132.224 173.667 138.535 160 139.78V119.65C167.409 118.589 174.283 115.18 179.613 109.925C184.943 104.669 188.447 97.8432 189.612 90.4493C190.776 83.0555 189.54 75.483 186.084 68.8435C182.628 62.2041 177.134 56.8475 170.41 53.56L175.96 34.13V34.13Z" fill="#778899"/>
</svg>
