<svg width="18" height="16" viewBox="0 0 18 16" fill="none" xmlns="http://www.w3.org/2000/svg">
<path d="M9.34496 2.16667H16.5C16.721 2.16667 16.9329 2.25446 17.0892 2.41074C17.2455 2.56702 17.3333 2.77899 17.3333 3V14.6667C17.3333 14.8877 17.2455 15.0996 17.0892 15.2559C16.9329 15.4122 16.721 15.5 16.5 15.5H1.49996C1.27895 15.5 1.06698 15.4122 0.910704 15.2559C0.754423 15.0996 0.666626 14.8877 0.666626 14.6667V1.33333C0.666626 1.11232 0.754423 0.900358 0.910704 0.744078C1.06698 0.587797 1.27895 0.5 1.49996 0.5H7.67829L9.34496 2.16667ZM8.16663 5.5V9.66667H9.83329V5.5H8.16663ZM8.16663 10.5V12.1667H9.83329V10.5H8.16663Z" fill="#E1F11F"/>
</svg>
